<svg xmlns="http://www.w3.org/2000/svg" width="11907" height="4894">
  <path fill="#fefefe"
    d="m2381 398 2.193.917c11.377 4.845 21.705 10.973 31.807 18.083l1.814 1.275c37.843 27.091 61.588 68.491 70.186 113.725l.688 3.41c8.48 50.352-8.96 93.796-33.705 136.183-2.541 4.366-5.057 8.747-7.573 13.128-6.383 11.111-12.875 22.153-19.425 33.167-5.232 8.809-10.371 17.668-15.479 26.549-5.88 10.224-11.821 20.412-17.772 30.595q-4.37 7.483-8.734 14.968l-3.5 6-1.75 3-49 84-3.502 6.004q-4.353 7.465-8.713 14.926a5265 5265 0 0 0-17.91 30.883c-5.797 10.075-11.698 20.084-17.64 30.074-5.231 8.81-10.371 17.669-15.479 26.55-5.88 10.224-11.821 20.412-17.772 30.595q-4.37 7.483-8.734 14.968l-3.5 6-1.75 3-49 84-3.502 6.004q-4.353 7.465-8.713 14.926a5265 5265 0 0 0-17.91 30.882c-5.797 10.076-11.698 20.085-17.64 30.075-5.231 8.81-10.371 17.669-15.479 26.55-5.88 10.224-11.821 20.412-17.772 30.595q-4.37 7.483-8.734 14.968l-3.5 6-1.75 3-47.25 81-1.75 3-3.498 5.996q-4.396 7.535-8.787 15.074A6112 6112 0 0 1 2007 1438c2.47 4.527 5.602 8.166 9 12q1.763 2.01 3.523 4.023l1.777 2.027c2.47 2.834 4.902 5.7 7.325 8.575l1.352 1.602 2.685 3.185q3.384 4.015 6.775 8.025l1.364 1.614c2.912 3.441 5.843 6.866 8.783 10.283 4.008 4.658 7.984 9.329 11.854 14.103 4.101 5.052 8.348 9.964 12.62 14.87 4.922 5.657 9.773 11.37 14.604 17.105q3.384 4.015 6.776 8.025l1.363 1.614c2.912 3.441 5.843 6.866 8.783 10.283 4.008 4.658 7.984 9.329 11.854 14.103 4.102 5.052 8.349 9.966 12.622 14.873 3.987 4.581 7.928 9.197 11.841 13.841 3.384 4.013 6.8 7.996 10.224 11.974 3.493 4.061 6.94 8.15 10.313 12.313 4.101 5.05 8.348 9.963 12.62 14.87 4.922 5.656 9.773 11.37 14.604 17.104q3.384 4.015 6.776 8.025l1.363 1.614c2.912 3.441 5.843 6.866 8.783 10.283 4.008 4.658 7.984 9.329 11.854 14.103 4.102 5.052 8.349 9.966 12.622 14.873 3.987 4.581 7.928 9.197 11.841 13.841 3.384 4.013 6.8 7.996 10.224 11.974 3.493 4.061 6.94 8.15 10.313 12.313 4.101 5.05 8.348 9.963 12.62 14.87 4.922 5.656 9.773 11.37 14.604 17.104q3.384 4.015 6.776 8.025l1.363 1.614c2.912 3.441 5.843 6.866 8.783 10.283 4.008 4.658 7.984 9.329 11.854 14.103 4.102 5.052 8.349 9.966 12.622 14.873 3.987 4.581 7.928 9.197 11.841 13.841 3.384 4.013 6.8 7.996 10.224 11.974 3.493 4.061 6.94 8.15 10.313 12.313 4.101 5.05 8.348 9.963 12.62 14.87 4.922 5.656 9.773 11.37 14.604 17.104q3.384 4.015 6.776 8.025l1.363 1.614c2.912 3.441 5.843 6.866 8.783 10.283 4.008 4.658 7.984 9.329 11.854 14.103 4.102 5.052 8.349 9.966 12.622 14.873 3.987 4.581 7.928 9.197 11.841 13.841 3.384 4.013 6.8 7.996 10.224 11.974 3.493 4.061 6.94 8.15 10.313 12.313 4.101 5.05 8.348 9.963 12.62 14.87 4.922 5.656 9.773 11.37 14.604 17.104q3.384 4.015 6.776 8.025l1.363 1.614c2.912 3.441 5.843 6.866 8.783 10.283 4.008 4.658 7.984 9.329 11.854 14.103 4.102 5.052 8.349 9.966 12.622 14.873 3.987 4.581 7.928 9.197 11.841 13.841 3.384 4.013 6.8 7.996 10.224 11.974 3.493 4.061 6.94 8.15 10.313 12.313 4.101 5.05 8.348 9.963 12.62 14.87 4.922 5.656 9.773 11.37 14.604 17.104q3.384 4.015 6.776 8.026l1.363 1.613c2.912 3.441 5.843 6.866 8.783 10.283 4.008 4.658 7.984 9.329 11.854 14.104 4.102 5.051 8.349 9.965 12.622 14.872 3.987 4.581 7.928 9.197 11.841 13.841 3.384 4.013 6.8 7.996 10.224 11.974 3.493 4.061 6.94 8.15 10.313 12.313 4.101 5.05 8.348 9.963 12.62 14.87 4.922 5.656 9.773 11.37 14.604 17.104q3.384 4.015 6.776 8.026l1.363 1.613c2.912 3.441 5.843 6.866 8.783 10.283 4.008 4.658 7.984 9.329 11.854 14.104 4.101 5.05 8.348 9.963 12.62 14.87 4.922 5.656 9.773 11.37 14.604 17.104q3.384 4.015 6.776 8.026l1.363 1.613c2.912 3.441 5.843 6.866 8.783 10.283 4.008 4.658 7.984 9.329 11.854 14.104 4.102 5.051 8.349 9.965 12.622 14.872 3.987 4.581 7.928 9.197 11.841 13.841 3.384 4.013 6.8 7.996 10.224 11.974 3.493 4.061 6.94 8.15 10.313 12.313 4.101 5.05 8.348 9.963 12.62 14.87 4.922 5.656 9.773 11.37 14.604 17.104a6415 6415 0 0 0 8.139 9.639c2.912 3.441 5.843 6.866 8.783 10.283 4.795 5.573 9.52 11.188 14.143 16.904a250 250 0 0 0 4.921 5.805c32.892 37.67 45.385 83.647 43.352 132.957-2.852 40.384-21.067 75.288-46.559 105.844A424 424 0 0 0 2875.5 2727c-4.73 6.078-9.609 12.027-14.517 17.963a894 894 0 0 0-10.862 13.385c-2.853 3.567-5.738 7.109-8.621 10.652-3.516 4.32-7.027 8.644-10.5 13-4.04 5.067-8.133 10.09-12.223 15.117q-5.349 6.58-10.632 13.211a1420 1420 0 0 1-6.77 8.351c-4.657 5.714-9.281 11.445-13.812 17.258-5.215 6.682-10.6 13.215-16 19.747a2015 2015 0 0 0-22.407 27.628c-3.438 4.286-6.911 8.543-10.379 12.805-2.94 3.616-5.871 7.239-8.777 10.883-4.04 5.067-8.133 10.09-12.223 15.117q-5.349 6.58-10.632 13.211a1420 1420 0 0 1-6.77 8.351c-4.657 5.714-9.281 11.445-13.812 17.258-5.215 6.682-10.6 13.215-16 19.747a2015 2015 0 0 0-22.407 27.628c-3.438 4.286-6.911 8.543-10.379 12.805-2.94 3.616-5.871 7.239-8.777 10.883-4.04 5.067-8.133 10.09-12.223 15.117q-5.349 6.58-10.632 13.211a1420 1420 0 0 1-6.77 8.351c-4.657 5.714-9.281 11.445-13.812 17.258-5.215 6.682-10.6 13.215-16 19.747a2015 2015 0 0 0-22.407 27.628c-3.438 4.286-6.911 8.543-10.379 12.805-2.94 3.616-5.871 7.239-8.777 10.883-4.04 5.067-8.133 10.09-12.223 15.117q-5.349 6.58-10.632 13.211a1420 1420 0 0 1-6.77 8.351c-4.657 5.714-9.281 11.445-13.812 17.258-5.215 6.682-10.6 13.215-16 19.747a2015 2015 0 0 0-22.407 27.628c-3.438 4.286-6.911 8.543-10.379 12.805-2.94 3.616-5.871 7.239-8.777 10.883-4.04 5.067-8.133 10.09-12.223 15.117q-5.349 6.58-10.632 13.211a1420 1420 0 0 1-6.77 8.351c-4.657 5.714-9.281 11.445-13.812 17.258-5.215 6.682-10.6 13.215-16 19.747a2015 2015 0 0 0-22.407 27.628c-3.438 4.286-6.911 8.543-10.379 12.805-2.94 3.616-5.871 7.239-8.777 10.883-4.04 5.067-8.133 10.09-12.223 15.117q-5.349 6.58-10.632 13.211a1420 1420 0 0 1-6.77 8.351c-4.657 5.714-9.281 11.445-13.812 17.258-5.215 6.682-10.6 13.215-16 19.747a2015 2015 0 0 0-22.407 27.628c-3.438 4.286-6.911 8.543-10.379 12.805-2.94 3.616-5.871 7.239-8.777 10.883-4.04 5.067-8.133 10.09-12.223 15.117q-5.349 6.58-10.632 13.211a1420 1420 0 0 1-6.77 8.351c-4.657 5.714-9.281 11.445-13.812 17.258-5.215 6.682-10.6 13.215-16 19.747a2015 2015 0 0 0-22.407 27.628c-3.438 4.286-6.911 8.543-10.379 12.805-2.94 3.616-5.871 7.239-8.777 10.883-4.04 5.067-8.133 10.09-12.223 15.117q-5.349 6.58-10.632 13.211a1420 1420 0 0 1-6.77 8.351c-4.657 5.714-9.281 11.445-13.812 17.258-5.215 6.682-10.6 13.215-16 19.747a2015 2015 0 0 0-22.407 27.628c-3.438 4.286-6.911 8.543-10.379 12.805-2.94 3.616-5.871 7.239-8.777 10.883-4.573 5.733-9.201 11.422-13.836 17.105a623 623 0 0 0-5.578 6.946c-9.521 11.962-20.282 21.92-32.586 30.949l-1.68 1.256c-25.916 19.187-60.312 31.751-92.746 31.947l-2.366.022c-32.467.226-32.467.226-46.208-3.225l-2.488-.602c-29.862-7.392-57.093-21.216-79.512-42.398a735 735 0 0 0-4.062-3.437c-33.26-29.284-50.73-75.024-53.649-118.31-2.69-49.627 15.42-92.572 46.48-130.304 3.014-3.665 5.944-7.39 8.856-11.137 3.96-5.081 8.057-10.02 12.246-14.914 3.842-4.509 7.508-9.141 11.149-13.813a645 645 0 0 1 10.53-13.105c3.017-3.67 6.016-7.355 9.013-11.043l1.71-2.104a1912 1912 0 0 0 10.57-13.146c3.44-4.285 6.912-8.542 10.38-12.804 2.94-3.616 5.871-7.239 8.777-10.883 4.04-5.067 8.133-10.09 12.223-15.117q5.349-6.58 10.632-13.211c2.244-2.795 4.506-5.574 6.77-8.351 4.657-5.714 9.281-11.445 13.813-17.258 5.214-6.682 10.6-13.215 16-19.747a2015 2015 0 0 0 22.406-27.628c3.438-4.286 6.911-8.543 10.379-12.805 2.94-3.616 5.871-7.239 8.777-10.883 4.04-5.067 8.133-10.09 12.223-15.117q5.349-6.58 10.632-13.211c2.244-2.795 4.506-5.574 6.77-8.351 4.657-5.714 9.281-11.445 13.813-17.258 5.214-6.682 10.6-13.215 16-19.747a2015 2015 0 0 0 22.406-27.628c3.438-4.286 6.911-8.543 10.379-12.805 2.94-3.616 5.871-7.239 8.777-10.883 4.04-5.067 8.133-10.09 12.223-15.117q5.349-6.58 10.632-13.211c2.244-2.795 4.506-5.574 6.77-8.351 4.657-5.714 9.281-11.445 13.813-17.258 5.214-6.682 10.6-13.215 16-19.747a2015 2015 0 0 0 22.406-27.628c3.438-4.286 6.911-8.543 10.379-12.805 2.94-3.616 5.871-7.239 8.777-10.883 4.04-5.067 8.133-10.09 12.223-15.117q5.349-6.58 10.632-13.211c2.244-2.795 4.506-5.574 6.77-8.351 4.657-5.714 9.281-11.445 13.813-17.258 5.214-6.682 10.6-13.215 16-19.747a2015 2015 0 0 0 22.406-27.628c3.438-4.286 6.911-8.543 10.379-12.805 2.94-3.616 5.871-7.239 8.777-10.883 4.04-5.067 8.133-10.09 12.223-15.117q5.349-6.58 10.632-13.211c2.244-2.795 4.506-5.574 6.77-8.351 4.657-5.714 9.281-11.445 13.813-17.258 5.214-6.682 10.6-13.215 16-19.747a2015 2015 0 0 0 22.406-27.628c3.438-4.286 6.911-8.543 10.379-12.805 2.94-3.616 5.871-7.239 8.777-10.883 4.04-5.067 8.133-10.09 12.223-15.117q5.349-6.58 10.632-13.211c2.244-2.795 4.506-5.574 6.77-8.351 4.657-5.714 9.281-11.445 13.813-17.258 5.214-6.682 10.6-13.215 16-19.747a2015 2015 0 0 0 22.406-27.628c3.438-4.286 6.911-8.543 10.379-12.805 2.94-3.616 5.871-7.239 8.777-10.883 4.04-5.067 8.133-10.09 12.223-15.117q5.349-6.58 10.632-13.211c2.244-2.795 4.506-5.574 6.77-8.351 4.657-5.714 9.281-11.445 13.813-17.258 5.214-6.682 10.6-13.215 16-19.747 7.545-9.128 15.028-18.312 22.37-27.605a358 358 0 0 1 5.602-6.734l1.822-2.172a386 386 0 0 1 3.641-4.274l1.662-1.992 1.512-1.775c1.148-1.731 1.148-1.731.753-3.798-1.346-3.308-3.824-5.77-6.175-8.403l-3.3-3.774-1.69-1.92c-2.434-2.782-4.817-5.605-7.198-8.432l-2.726-3.226-4.065-4.815-4.084-4.834-1.363-1.613a1641 1641 0 0 0-8.783-10.283c-4.008-4.658-7.984-9.329-11.854-14.104-4.102-5.051-8.349-9.965-12.622-14.872-3.987-4.581-7.928-9.197-11.841-13.841-3.384-4.013-6.8-7.996-10.224-11.974a547 547 0 0 1-10.312-12.312c-4.102-5.052-8.349-9.964-12.62-14.87-4.923-5.657-9.774-11.37-14.605-17.105a6415 6415 0 0 0-6.776-8.026l-1.363-1.613a1639 1639 0 0 0-8.783-10.283c-4.008-4.658-7.984-9.329-11.854-14.104-4.102-5.051-8.349-9.965-12.622-14.872-3.987-4.581-7.928-9.197-11.841-13.841-3.384-4.013-6.8-7.996-10.224-11.974a547 547 0 0 1-10.312-12.312c-4.102-5.052-8.349-9.964-12.62-14.87-4.923-5.657-9.774-11.37-14.605-17.105a6415 6415 0 0 0-6.776-8.026l-1.363-1.613a1639 1639 0 0 0-8.783-10.283c-4.008-4.658-7.984-9.329-11.854-14.104-4.102-5.051-8.349-9.965-12.622-14.872-3.987-4.581-7.928-9.197-11.841-13.841-3.384-4.013-6.8-7.996-10.224-11.974a547 547 0 0 1-10.312-12.312c-4.102-5.052-8.349-9.964-12.62-14.87-4.923-5.657-9.774-11.37-14.605-17.105a6415 6415 0 0 0-6.776-8.026l-1.363-1.613a1639 1639 0 0 0-8.783-10.283c-4.008-4.658-7.984-9.329-11.854-14.104-4.102-5.051-8.349-9.965-12.622-14.872-3.987-4.581-7.928-9.197-11.841-13.841-3.384-4.013-6.8-7.996-10.224-11.974a547 547 0 0 1-10.312-12.312c-4.102-5.052-8.349-9.964-12.62-14.87-4.923-5.657-9.774-11.37-14.605-17.105a6415 6415 0 0 0-6.776-8.026l-1.363-1.613a1639 1639 0 0 0-8.783-10.283c-4.008-4.658-7.984-9.329-11.854-14.104-4.102-5.051-8.349-9.965-12.622-14.872-3.987-4.581-7.928-9.197-11.841-13.841-3.384-4.013-6.8-7.996-10.224-11.974a547 547 0 0 1-10.312-12.312c-4.102-5.052-8.349-9.964-12.62-14.87-4.923-5.657-9.774-11.37-14.605-17.105a6415 6415 0 0 0-6.775-8.025l-1.364-1.614a1639 1639 0 0 0-8.783-10.283c-4.008-4.658-7.984-9.329-11.853-14.103-4.102-5.052-8.349-9.964-12.62-14.87-4.923-5.657-9.774-11.37-14.605-17.105a6415 6415 0 0 0-6.775-8.025l-1.364-1.614a1639 1639 0 0 0-8.783-10.283c-4.008-4.658-7.984-9.329-11.853-14.103-4.103-5.052-8.35-9.966-12.623-14.873-3.987-4.581-7.928-9.197-11.841-13.841-3.384-4.013-6.8-7.996-10.224-11.974a547 547 0 0 1-10.312-12.312c-4.102-5.052-8.349-9.964-12.62-14.87a1085 1085 0 0 1-11.912-13.91 7508 7508 0 0 1-5.446-6.464q-2.135-2.535-4.273-5.069l-2.511-2.984c-3.529-4.152-7.17-8.204-10.801-12.266l-1.063 1.822L1754.75 1871l-3.502 6.004q-4.354 7.465-8.713 14.926a5265 5265 0 0 0-17.91 30.882c-5.797 10.076-11.698 20.085-17.64 30.075-5.231 8.81-10.371 17.669-15.479 26.55-5.88 10.224-11.821 20.412-17.772 30.595q-4.37 7.483-8.734 14.968l-3.5 6-1.75 3-49 84-3.502 6.004q-4.354 7.465-8.713 14.926a5265 5265 0 0 0-17.91 30.883c-5.797 10.075-11.698 20.084-17.64 30.074-5.231 8.81-10.371 17.669-15.479 26.55-5.88 10.224-11.821 20.412-17.772 30.595q-4.37 7.483-8.734 14.968l-3.5 6-1.75 3-49 84-3.502 6.004q-4.354 7.465-8.713 14.926a5265 5265 0 0 0-17.91 30.883c-5.797 10.075-11.698 20.084-17.64 30.074-5.231 8.81-10.371 17.669-15.479 26.55-5.88 10.224-11.821 20.412-17.772 30.595q-4.37 7.483-8.734 14.968l-3.5 6-1.75 3-35 60-3.502 6.004q-4.353 7.465-8.713 14.926a5265 5265 0 0 0-17.91 30.883c-5.797 10.075-11.698 20.084-17.64 30.074-5.231 8.81-10.371 17.669-15.479 26.55a3823 3823 0 0 1-12.569 21.688l-1.716 2.942a7219 7219 0 0 1-9.069 15.488l-1.915 3.269q-1.807 3.082-3.62 6.16c-4.891 8.353-8.86 16.314-11.867 25.516-3.15 9.293-7.04 17.903-11.75 26.5l-1.781 3.27c-6.072 10.749-13.486 20.255-21.508 29.59l-1.343 1.571a107 107 0 0 1-2.775 3.061c-4.602 5.01-7.786 10.705-11.082 16.629-1.39 2.499-2.798 4.987-4.204 7.477q-1.082 1.916-2.161 3.834c-3.364 5.974-6.806 11.902-10.271 17.818l-1.725 2.949-3.432 5.865c-2.912 4.976-5.814 9.956-8.718 14.936l-3.5 6-1.75 3-105 180-3.502 6.004q-4.353 7.465-8.713 14.926a5265 5265 0 0 0-17.91 30.883c-5.797 10.075-11.698 20.084-17.64 30.074-5.231 8.81-10.371 17.669-15.479 26.55-5.88 10.224-11.821 20.412-17.772 30.595q-4.37 7.483-8.734 14.968l-3.5 6-1.75 3-49 84-3.502 6.004q-4.353 7.465-8.713 14.926a5265 5265 0 0 0-17.91 30.883c-5.797 10.075-11.698 20.084-17.64 30.074-5.231 8.81-10.371 17.669-15.479 26.55-5.88 10.224-11.821 20.412-17.772 30.595q-4.37 7.483-8.734 14.968l-3.5 6-1.75 3-49 84-3.502 6.004q-4.353 7.465-8.713 14.926a5265 5265 0 0 0-17.91 30.883c-5.797 10.075-11.698 20.084-17.64 30.074-5.231 8.81-10.371 17.669-15.479 26.55-5.88 10.224-11.821 20.412-17.772 30.595q-3.494 5.981-6.983 11.966l-3.492 5.985a5355 5355 0 0 0-8.9 15.298c-12.295 21.207-24.424 40.907-41.359 58.719l-1.875 2.07c-26.188 27.942-69.061 47.041-107.168 49.037a314 314 0 0 1-6.383.096l-2.366.022c-32.652.23-32.652.23-46.208-3.225l-2.766-.684c-28.489-7.221-55.384-20.065-77.004-40.238-2.048-1.908-4.15-3.714-6.293-5.515-24.563-21.567-41.33-54.155-48.937-85.563l-.637-2.619c-5.563-24.123-6.433-53.23-.363-77.381l.634-2.557c6.591-25.877 18.45-48.136 32.11-70.94A1214 1214 0 0 0 359 3557c5.907-10.4 11.947-20.713 18.066-30.99 5.218-8.773 10.34-17.599 15.428-26.448 5.88-10.223 11.821-20.411 17.772-30.594q4.37-7.483 8.734-14.968l3.5-6 1.75-3 35-60 3.502-6.004q4.353-7.465 8.713-14.926a5265 5265 0 0 0 17.91-30.883c5.797-10.075 11.698-20.084 17.64-30.074 5.231-8.81 10.371-17.669 15.479-26.55 5.88-10.224 11.821-20.412 17.772-30.595q4.37-7.483 8.734-14.968l3.5-6 1.75-3 49-84 3.502-6.004q4.354-7.465 8.713-14.926a5265 5265 0 0 0 17.91-30.883c5.797-10.075 11.698-20.084 17.64-30.074 5.231-8.81 10.371-17.669 15.479-26.55 5.88-10.224 11.821-20.412 17.772-30.595q4.37-7.483 8.734-14.968l3.5-6 1.75-3 49-84 3.502-6.004q4.353-7.465 8.713-14.926a5265 5265 0 0 0 17.91-30.883c5.797-10.075 11.698-20.084 17.64-30.074 5.231-8.81 10.371-17.669 15.479-26.55 3.591-6.244 7.195-12.48 10.826-18.702q1.726-2.958 3.446-5.922a825 825 0 0 1 9.293-15.6l1.997-3.31a508 508 0 0 1 3.854-6.278l1.715-2.856 1.54-2.505c1.089-2.401 1.089-2.401.158-4.968-1.23-2.253-2.471-4.11-4.124-6.067l-1.693-2.027-1.818-2.14-3.81-4.555c-.645-.77-1.29-1.539-1.956-2.331-2.966-3.552-5.883-7.144-8.797-10.74l-1.65-2.032q-5.193-6.407-10.33-12.858a1420 1420 0 0 0-6.77-8.351c-4.657-5.714-9.281-11.445-13.812-17.258-5.215-6.682-10.6-13.215-16-19.747a2015 2015 0 0 1-22.407-27.628c-2.869-3.576-5.763-7.132-8.656-10.688a1983 1983 0 0 1-12.344-15.312c-2.869-3.576-5.763-7.132-8.656-10.688a1946 1946 0 0 1-12.355-15.328 1420 1420 0 0 0-6.77-8.351c-4.657-5.714-9.281-11.445-13.812-17.258-5.215-6.682-10.6-13.215-16-19.747a2015 2015 0 0 1-22.407-27.628c-2.869-3.576-5.763-7.132-8.656-10.688a1983 1983 0 0 1-12.344-15.312c-2.869-3.576-5.763-7.132-8.656-10.688a1946 1946 0 0 1-12.355-15.328 1420 1420 0 0 0-6.77-8.351c-4.657-5.714-9.281-11.445-13.812-17.258-5.215-6.682-10.6-13.215-16-19.747a2015 2015 0 0 1-22.407-27.628c-2.869-3.576-5.763-7.132-8.656-10.688a1983 1983 0 0 1-12.344-15.312c-2.869-3.576-5.763-7.132-8.656-10.688a1946 1946 0 0 1-12.355-15.328 1420 1420 0 0 0-6.77-8.351c-4.657-5.714-9.281-11.445-13.812-17.258-5.215-6.682-10.6-13.215-16-19.747a2015 2015 0 0 1-22.407-27.628c-2.869-3.576-5.763-7.132-8.656-10.688a1983 1983 0 0 1-12.344-15.312c-2.869-3.576-5.763-7.132-8.656-10.688a1946 1946 0 0 1-12.355-15.328 1420 1420 0 0 0-6.77-8.351c-4.657-5.714-9.281-11.445-13.812-17.258-5.215-6.682-10.6-13.215-16-19.747a2015 2015 0 0 1-22.407-27.628c-2.869-3.576-5.763-7.132-8.656-10.688a1983 1983 0 0 1-12.344-15.312c-2.869-3.576-5.763-7.132-8.656-10.688a1946 1946 0 0 1-12.355-15.328 1420 1420 0 0 0-6.77-8.351c-4.657-5.714-9.281-11.445-13.812-17.258-5.215-6.682-10.6-13.215-16-19.747a2015 2015 0 0 1-22.407-27.629c-2.869-3.575-5.763-7.13-8.656-10.687a1983 1983 0 0 1-12.344-15.312c-2.869-3.576-5.763-7.132-8.656-10.688a1946 1946 0 0 1-12.355-15.328 1420 1420 0 0 0-6.77-8.351c-4.657-5.714-9.281-11.445-13.812-17.258-5.215-6.682-10.6-13.215-16-19.747a2015 2015 0 0 1-22.407-27.629c-2.869-3.575-5.763-7.13-8.656-10.687a1983 1983 0 0 1-12.344-15.312c-2.869-3.576-5.763-7.132-8.656-10.688a1946 1946 0 0 1-12.355-15.328 1420 1420 0 0 0-6.77-8.351c-4.657-5.714-9.281-11.445-13.812-17.258-5.215-6.682-10.6-13.215-16-19.747-5.103-6.172-10.15-12.39-15.187-18.616a1810 1810 0 0 0-3.544-4.36A585 585 0 0 1 41 1729l-1.322-1.667C19.225 1701.42 5.838 1671.747 1 1639l-.286-1.92c-5.936-45.337 6.184-93.02 33.583-129.642 3.984-5.158 8.298-10.037 12.613-14.918a266 266 0 0 0 7.59-9.02c4.078-5.034 8.306-9.925 12.56-14.81 3.987-4.581 7.928-9.198 11.841-13.841 3.384-4.013 6.8-7.996 10.224-11.974 3.493-4.061 6.94-8.15 10.313-12.312 4.102-5.052 8.349-9.966 12.622-14.873 3.987-4.581 7.928-9.197 11.841-13.841 3.384-4.013 6.8-7.996 10.224-11.974 3.493-4.061 6.94-8.15 10.313-12.312 4.101-5.052 8.348-9.964 12.62-14.87 4.922-5.657 9.773-11.37 14.604-17.105q3.385-4.015 6.775-8.025l1.364-1.614c3.42-4.042 6.87-8.06 10.324-12.074 3.493-4.061 6.94-8.15 10.313-12.312 4.102-5.052 8.349-9.966 12.622-14.873 3.987-4.581 7.928-9.197 11.841-13.841 3.384-4.013 6.8-7.996 10.224-11.974 3.493-4.061 6.94-8.15 10.313-12.312 4.101-5.052 8.348-9.964 12.62-14.87 4.922-5.657 9.773-11.37 14.604-17.105q3.384-4.015 6.776-8.025l1.363-1.614c3.42-4.042 6.87-8.06 10.324-12.074 3.493-4.061 6.94-8.15 10.313-12.312 4.102-5.052 8.349-9.966 12.622-14.873 3.987-4.581 7.928-9.197 11.841-13.841 3.384-4.013 6.8-7.996 10.224-11.974 3.493-4.061 6.94-8.15 10.313-12.312 4.101-5.052 8.348-9.964 12.62-14.87 4.922-5.657 9.773-11.37 14.604-17.105q3.384-4.015 6.776-8.025l1.363-1.614c3.42-4.042 6.87-8.06 10.324-12.074 3.493-4.061 6.94-8.15 10.313-12.312 4.102-5.052 8.349-9.966 12.622-14.873 3.987-4.581 7.928-9.197 11.841-13.841 3.384-4.013 6.8-7.996 10.224-11.974 3.493-4.061 6.94-8.15 10.313-12.312 4.101-5.052 8.348-9.964 12.62-14.87 4.922-5.657 9.773-11.37 14.604-17.105q3.384-4.016 6.776-8.025l1.363-1.614c3.42-4.042 6.87-8.06 10.324-12.074 3.493-4.061 6.94-8.15 10.313-12.312 4.102-5.052 8.349-9.966 12.622-14.873 3.987-4.581 7.928-9.197 11.841-13.841 3.384-4.013 6.8-7.996 10.224-11.974 3.493-4.061 6.94-8.15 10.313-12.312 4.101-5.052 8.348-9.964 12.62-14.87 4.922-5.657 9.773-11.37 14.604-17.105q3.384-4.015 6.775-8.025l1.364-1.614c3.42-4.042 6.87-8.06 10.324-12.074 3.493-4.061 6.94-8.15 10.313-12.312 4.102-5.052 8.349-9.966 12.622-14.873 3.987-4.581 7.928-9.197 11.841-13.841 3.384-4.013 6.8-7.996 10.224-11.974 3.493-4.061 6.94-8.15 10.313-12.312 4.101-5.052 8.348-9.964 12.62-14.87 4.922-5.657 9.773-11.37 14.604-17.105q3.384-4.015 6.775-8.025l1.364-1.614c3.42-4.042 6.87-8.06 10.324-12.074 3.493-4.061 6.94-8.15 10.313-12.312 4.102-5.052 8.349-9.966 12.622-14.873 3.987-4.581 7.928-9.197 11.841-13.841 3.384-4.013 6.8-7.996 10.224-11.974 3.493-4.061 6.94-8.15 10.313-12.312 4.101-5.052 8.348-9.964 12.62-14.87 4.922-5.657 9.773-11.37 14.604-17.105q3.384-4.016 6.775-8.025l1.364-1.614c3.42-4.042 6.87-8.06 10.324-12.074 3.493-4.061 6.94-8.15 10.313-12.312 4.102-5.052 8.349-9.966 12.622-14.873 3.987-4.581 7.928-9.197 11.841-13.841 3.384-4.013 6.8-7.996 10.224-11.974 3.493-4.061 6.94-8.15 10.313-12.312 4.101-5.052 8.348-9.964 12.62-14.87 4.922-5.657 9.773-11.37 14.604-17.105q3.384-4.015 6.775-8.025l1.364-1.614c3.42-4.042 6.87-8.06 10.324-12.074 3.493-4.061 6.94-8.15 10.313-12.312 4.613-5.68 9.407-11.192 14.214-16.708a965 965 0 0 0 8.18-9.539C959.44 417.482 1002.354 395.131 1048 391c5.379-.28 10.741-.342 16.125-.312l2.173.006c45.157.217 88.042 16.898 120.702 48.306l1.584 1.49c24.553 23.16 41.31 52.764 49.416 85.51l.637 2.488c6.387 26.014 5.89 56.599-.637 82.512l-.535 2.248c-5.984 24.666-18.167 48.35-34.465 67.752-.465.555-.93 1.11-1.41 1.68a917 917 0 0 1-9.045 10.54c-2.588 2.98-5.161 5.973-7.733 8.967l-1.525 1.776a504 504 0 0 0-8.725 10.475c-4.101 5.05-8.348 9.963-12.62 14.87-4.922 5.656-9.773 11.37-14.604 17.104a6415 6415 0 0 1-6.775 8.025l-1.364 1.614c-3.42 4.042-6.87 8.06-10.324 12.074a548 548 0 0 0-10.312 12.313c-4.103 5.051-8.35 9.965-12.623 14.872-3.987 4.581-7.928 9.197-11.841 13.841-3.384 4.013-6.8 7.996-10.224 11.974a547 547 0 0 0-10.312 12.313c-4.102 5.05-8.349 9.963-12.62 14.87-4.923 5.656-9.774 11.37-14.605 17.104a6415 6415 0 0 1-6.775 8.025l-1.364 1.614c-3.42 4.042-6.87 8.06-10.324 12.074a548 548 0 0 0-10.312 12.313c-4.103 5.051-8.35 9.965-12.623 14.872-3.987 4.581-7.928 9.197-11.841 13.841-3.384 4.013-6.8 7.996-10.224 11.974a547 547 0 0 0-10.312 12.313c-4.102 5.05-8.349 9.963-12.62 14.87-4.923 5.656-9.774 11.37-14.605 17.104a6415 6415 0 0 1-6.775 8.025l-1.364 1.614c-3.42 4.042-6.87 8.06-10.324 12.074a548 548 0 0 0-10.312 12.313c-4.103 5.051-8.35 9.965-12.623 14.872-3.987 4.581-7.928 9.197-11.841 13.841-3.384 4.013-6.8 7.996-10.224 11.974a547 547 0 0 0-10.312 12.313c-4.102 5.05-8.349 9.963-12.62 14.87-4.923 5.656-9.774 11.37-14.605 17.104a6415 6415 0 0 1-6.775 8.025l-1.364 1.614c-3.42 4.042-6.87 8.06-10.324 12.074a548 548 0 0 0-10.312 12.313c-4.103 5.051-8.35 9.965-12.623 14.872-3.987 4.581-7.928 9.197-11.841 13.841-3.384 4.013-6.8 7.996-10.224 11.974a547 547 0 0 0-10.312 12.313c-4.102 5.05-8.349 9.963-12.62 14.87-4.923 5.656-9.774 11.37-14.605 17.104a6415 6415 0 0 1-6.775 8.025l-1.364 1.614c-3.42 4.042-6.87 8.06-10.324 12.074a548 548 0 0 0-10.312 12.313c-4.102 5.05-8.349 9.963-12.62 14.87-4.923 5.656-9.774 11.37-14.605 17.104a6415 6415 0 0 1-6.775 8.025l-1.364 1.614c-3.42 4.042-6.87 8.06-10.324 12.074a548 548 0 0 0-10.312 12.313c-4.103 5.051-8.35 9.965-12.623 14.872-3.987 4.581-7.928 9.197-11.841 13.841-3.384 4.013-6.8 7.996-10.224 11.974a547 547 0 0 0-10.312 12.313c-4.102 5.05-8.349 9.963-12.62 14.87-4.923 5.656-9.774 11.37-14.605 17.104a6415 6415 0 0 1-6.775 8.025l-1.364 1.614c-3.42 4.042-6.87 8.06-10.324 12.074a548 548 0 0 0-10.312 12.313c-4.103 5.051-8.35 9.965-12.623 14.872-3.987 4.581-7.928 9.197-11.841 13.841-3.384 4.013-6.8 7.996-10.224 11.974a547 547 0 0 0-10.312 12.313c-4.102 5.05-8.349 9.963-12.62 14.87-4.923 5.656-9.774 11.37-14.605 17.104a6415 6415 0 0 1-6.776 8.025l-1.363 1.614c-3.42 4.042-6.87 8.06-10.324 12.074a548 548 0 0 0-10.312 12.313c-4.103 5.051-8.35 9.965-12.623 14.872q-5.3 6.085-10.502 12.253a2537 2537 0 0 1-14.614 17.148l-1.377 1.624a117 117 0 0 1-3.171 3.494l-1.694 1.835-1.567 1.647c-1.224 1.654-1.224 1.654-.802 3.719 1.249 3.126 3.371 5.57 5.474 8.158l1.46 1.827c5.15 6.416 10.399 12.751 15.642 19.09 3.07 3.716 6.09 7.47 9.09 11.243 2.853 3.567 5.738 7.109 8.621 10.652a1980 1980 0 0 1 12.344 15.313c2.869 3.575 5.763 7.13 8.656 10.687a1983 1983 0 0 1 12.344 15.313c2.869 3.575 5.763 7.13 8.656 10.687a1983 1983 0 0 1 12.344 15.313c2.869 3.575 5.763 7.13 8.656 10.687a1946 1946 0 0 1 12.355 15.328c2.244 2.795 4.506 5.574 6.77 8.351 4.657 5.714 9.281 11.445 13.813 17.258 5.214 6.682 10.6 13.215 16 19.747a2015 2015 0 0 1 22.406 27.629c2.869 3.575 5.763 7.13 8.656 10.687a1983 1983 0 0 1 12.344 15.313c2.869 3.575 5.763 7.13 8.656 10.687a1946 1946 0 0 1 12.355 15.328c2.244 2.795 4.506 5.574 6.77 8.351 4.657 5.714 9.281 11.445 13.813 17.258 5.214 6.682 10.6 13.215 16 19.747a2015 2015 0 0 1 22.406 27.629c2.869 3.575 5.763 7.13 8.656 10.687a1983 1983 0 0 1 12.344 15.313c2.869 3.575 5.763 7.13 8.656 10.687a1946 1946 0 0 1 12.355 15.328c2.244 2.795 4.506 5.574 6.77 8.351 4.657 5.714 9.281 11.445 13.813 17.258 5.214 6.682 10.6 13.215 16 19.747a2015 2015 0 0 1 22.406 27.628c2.869 3.576 5.763 7.132 8.656 10.688a1983 1983 0 0 1 12.344 15.313c2.869 3.575 5.763 7.13 8.656 10.687a1946 1946 0 0 1 12.355 15.328c2.244 2.795 4.506 5.574 6.77 8.351 4.657 5.714 9.281 11.445 13.813 17.258 5.214 6.682 10.6 13.215 16 19.747a2015 2015 0 0 1 22.406 27.628c2.869 3.576 5.763 7.132 8.656 10.688a1983 1983 0 0 1 12.344 15.313c2.869 3.575 5.763 7.13 8.656 10.687a1946 1946 0 0 1 12.355 15.328c2.244 2.795 4.506 5.574 6.77 8.351 4.657 5.714 9.281 11.445 13.813 17.258 5.214 6.682 10.6 13.215 16 19.747a2015 2015 0 0 1 22.406 27.628c2.869 3.576 5.763 7.132 8.656 10.688a1983 1983 0 0 1 12.344 15.313c3.432 4.277 6.897 8.528 10.361 12.78a986 986 0 0 1 9.295 11.595c2.656 3.337 5.389 6.395 8.5 9.312l.813-2.167c1.205-2.876 2.606-5.47 4.171-8.165l1.813-3.131 1.953-3.35 2.03-3.497q2.602-4.485 5.215-8.966l2.855-4.902q5.201-8.932 10.416-17.854 4.37-7.483 8.734-14.968l3.5-6 1.75-3 91-156 3.502-6.004q4.353-7.465 8.713-14.926a5265 5265 0 0 0 17.91-30.883c5.797-10.075 11.698-20.084 17.64-30.074 5.231-8.81 10.371-17.669 15.479-26.55 5.88-10.224 11.821-20.412 17.772-30.595q4.37-7.483 8.734-14.968l3.5-6 1.75-3 49-84 3.502-6.004q4.353-7.465 8.713-14.926a5265 5265 0 0 0 17.91-30.882c5.797-10.076 11.698-20.085 17.64-30.075 5.231-8.81 10.371-17.669 15.479-26.55 5.88-10.224 11.821-20.412 17.772-30.595q4.37-7.483 8.734-14.968l3.5-6 1.75-3 49-84 3.502-6.004q4.354-7.465 8.713-14.926a5265 5265 0 0 0 17.91-30.882c5.797-10.076 11.698-20.085 17.64-30.075 5.231-8.81 10.371-17.669 15.479-26.55 5.88-10.224 11.821-20.412 17.772-30.595q4.37-7.483 8.734-14.968l3.5-6 1.75-3 49-84 3.502-6.004q4.354-7.465 8.713-14.926a5265 5265 0 0 0 17.91-30.882c5.797-10.076 11.698-20.085 17.64-30.075 5.231-8.81 10.371-17.669 15.479-26.55 5.88-10.224 11.821-20.412 17.772-30.595q4.37-7.483 8.734-14.968l3.5-6 1.75-3 49-84 3.502-6.004q4.354-7.465 8.713-14.926a5265 5265 0 0 0 17.91-30.882c5.797-10.076 11.698-20.085 17.64-30.075 5.231-8.81 10.371-17.669 15.479-26.55 5.88-10.224 11.821-20.412 17.772-30.595q4.37-7.483 8.734-14.968l3.5-6 1.75-3 49-84 3.502-6.004q4.354-7.465 8.713-14.926a5265 5265 0 0 0 17.91-30.883c5.797-10.075 11.698-20.084 17.64-30.074 5.231-8.81 10.371-17.669 15.479-26.55 5.88-10.224 11.821-20.412 17.772-30.595q4.37-7.483 8.734-14.968l3.5-6 1.75-3 49-84 3.502-6.004q4.354-7.465 8.713-14.926a5265 5265 0 0 0 17.91-30.883c5.797-10.075 11.698-20.084 17.64-30.074 5.231-8.81 10.371-17.669 15.479-26.55 5.88-10.224 11.821-20.412 17.772-30.595q3.494-5.98 6.981-11.963l3.508-6.012q4.342-7.44 8.675-14.888 4.344-7.463 8.708-14.915 1.942-3.327 3.873-6.662c15.123-26.127 15.123-26.127 23.989-36.528q1.428-1.743 2.852-3.488c29.483-35.735 73.143-57.268 119.023-61.762 29.515-2.554 58.788 1.735 86.125 13.25" />
  <path fill="#fff"
    d="M3260 2276c682.12 0 682.12 0 725.84 4.746l2.685.289c56.282 6.19 111.675 17.188 165.475 34.965l3.613 1.187c24.722 8.168 48.799 17.797 72.387 28.813l2.896 1.346c42.694 19.926 83.416 44.268 120.5 73.398a887 887 0 0 0 5.026 3.9c8.422 6.527 16.545 13.357 24.578 20.356l2.305 1.996c13.888 12.076 27.411 24.54 40.4 37.578q2.532 2.538 5.072 5.067c5.057 5.053 10.036 10.13 14.68 15.57 2.701 3.131 5.574 6.1 8.418 9.102 4.854 5.161 9.497 10.413 13.922 15.953 2.036 2.526 4.12 4.999 6.23 7.463a389 389 0 0 1 15.585 19.423q1.443 1.922 2.897 3.836c23.34 30.786 43.73 63.725 61.491 98.012l1.589 3.061c37.8 73.221 61.733 154.038 84.411 340.939l.175 3.522c4.218 88.93-2.297 178.685-71.175 420.478l-.832 1.842c-17.034 37.654-36.688 74.09-60.168 108.158l-1.438 2.1c-19.112 27.871-40.036 54.48-63.046 79.24a244 244 0 0 0-3.268 3.657c-6.88 7.804-14.222 15.129-21.587 22.472a3573 3573 0 0 0-6.667 6.674l-4.31 4.306-1.977 1.983a228 228 0 0 1-11.975 11.074c-2.22 1.915-4.38 3.891-6.544 5.869-4.267 3.846-8.64 7.522-13.106 11.133a803 803 0 0 0-6.633 5.422c-24.133 19.886-49.61 38.02-76.449 54.07l-2.814 1.694c-15.726 9.44-31.8 18.072-48.186 26.306l-3.423 1.734c-70.295 35.452-147.062 57.093-976.577 78.266zm334 318v942c173.601 6.213 173.601 6.213 346.063-3.75l3.697-.513c62.787-9.077 123.208-31.701 174.24-69.737l1.63-1.209c20.952-15.61 41.662-33.602 58.526-53.607a291 291 0 0 1 4.688-5.399c8.184-9.259 15.798-18.86 23.156-28.785l1.347-1.807c52.722-71.06 77.74-156.805 88.653-263.193l.259-3.527c1.05-15.345.987-30.725.991-46.098l.001-2.212c.008-24.16-.505-48.136-3.251-72.163l-.257-2.275c-9.614-84.083-36.394-166.95-89.743-233.725l-2.266-2.852c-4.536-5.63-9.273-11.036-14.18-16.347a369 369 0 0 1-5.878-6.613c-9.455-10.836-19.31-21.351-30.134-30.833a556 556 0 0 1-4.913-4.386c-24.983-22.283-53.389-40.657-83.629-54.969l-2.234-1.069c-35.164-16.719-72.874-27.081-111.329-32.681l-2.061-.306C3830.823 2580.852 3711.799 2594 3594 2594M7654 393c775.867 0 775.867 0 963 100l2.579 1.837c9.142 6.55 18.036 13.29 26.526 20.667 2.688 2.318 5.43 4.537 8.208 6.746 11.952 9.775 22.825 20.797 33.75 31.688l1.493 1.485c5.702 5.678 11.242 11.434 16.444 17.577l2.738 3.168c6.334 7.429 12.427 15.004 18.262 22.832l1.476 1.97c25.712 34.49 45.745 72.094 61.524 112.03l1.144 2.872c17.266 43.778 26.278 90.73 31.168 137.378l.247 2.343A800 800 0 0 1 8824 871l.317 3.716c1.107 15.476.928 31.026.933 46.534l.002 2.33c.013 23.603-.441 46.959-3.252 70.42l-.422 3.813C8811.513 1088.19 8779.25 1176.277 8716 1259l-1.362 1.658c-5.802 7.024-11.823 13.822-18.017 20.502a553 553 0 0 0-7.183 7.965c-6.382 7.1-13.073 13.845-20.333 20.047-2.462 2.138-4.84 4.359-7.23 6.578-5.746 5.234-11.783 10.004-17.94 14.743-1.99 1.55-3.954 3.13-5.915 4.718-23.668 19.023-50.103 34.805-77.02 48.789 1.314 4.303 2.978 8.054 5.168 11.98l1.934 3.485 2.085 3.723q1.085 1.948 2.168 3.898 2.23 4.01 4.467 8.013c2.625 4.7 5.238 9.405 7.85 14.11l3.682 6.626a11046 11046 0 0 1 19.63 35.508q4.506 8.174 9.017 16.347l4.999 9.06 2 3.625 180 326.25 17.026 30.864c6.806 12.347 13.622 24.69 20.474 37.011a8441 8441 0 0 1 17.416 31.469 3788 3788 0 0 0 9.473 17.119q2.238 4.017 4.471 8.039 1.07 1.92 2.142 3.837 1.487 2.658 2.963 5.321l1.707 3.059C8881 1966 8881 1966 8882 1970h-363l-12-23c-4.394-8.082-4.394-8.082-8.809-16.152-3.563-6.511-7.066-13.053-10.566-19.598l-3.836-7.172-.96-1.793A6716 6716 0 0 0 8473 1884q-7.27-13.49-14.5-27c-6.57-12.271-13.163-24.53-19.766-36.782q-4.369-8.108-8.734-16.218l-3.5-6.5-77-143-1.75-3.25-3.502-6.504q-4.355-8.09-8.713-16.176-9.515-17.655-18.981-35.338a14504 14504 0 0 0-18.82-35.014q-4.369-8.108-8.734-16.218l-3.5-6.5-8.751-16.252-3.49-6.48q-4.456-8.271-8.9-16.55l-1.832-3.41-3.382-6.304c-4.957-9.222-10.058-18.348-15.145-27.504l-256-1v512h-334zm334 308v448l142 .188 44.742.082c13.301.01 13.301.01 26.603.016q8.847.005 17.694.03 10.234.03 20.468.024c3.481-.001 6.962.001 10.442.018 48.545.196 98.845-9.587 139.051-38.358l3.012-2.133c16.813-12.264 31.578-26.15 43.988-42.867l1.215-1.637c6.38-8.692 11.77-17.834 16.785-27.363l1.027-1.934c17.787-34.02 24.654-73.184 24.41-111.254l-.009-3.084c-.072-16.52-.944-32.526-4.428-48.728l-.65-3.022c-11.972-53.555-42.603-101.592-89.143-131.455-46.387-28.867-97.35-36.716-151.084-36.637h-8.206q-9.825 0-19.648.01-11.382.01-22.764.01c-20.002.005-40.003.019-60.005.032z" />
  <path fill="#18a0ba"
    d="M8603 2276c629.517 0 629.517 0 663.063 3.75l2.302.25c68.535 7.484 134.91 26.1 196.635 57l2.699 1.337c21.502 10.705 41.988 23.39 61.301 37.663l1.708 1.252c14.175 10.412 27.761 21.604 40.76 33.451a494 494 0 0 0 4.743 4.251c6.512 5.767 12.704 11.807 18.84 17.967q2.463 2.468 4.935 4.929c5.549 5.544 10.94 11.164 16.014 17.15q1.388 1.574 2.781 3.14c8.656 9.852 16.486 20.275 24.219 30.86l1.626 2.216c49.484 67.706 76.585 148.378 87.124 230.972l.306 2.36c3.347 26.102 4.328 52.219 4.262 78.503q-.008 3.453-.011 6.906c-.04 23.784-.604 47.393-3.307 71.043l-.257 2.306c-6.355 56.773-20.031 112.59-43.743 164.694l-1.437 3.16c-16.873 36.785-38.578 70.83-64.563 101.84l-1.51 1.811c-10.395 12.426-21.44 24.208-32.865 35.689l-1.944 1.958c-3.813 3.8-7.745 7.403-11.82 10.92-2.556 2.227-5.016 4.551-7.486 6.872-5.368 4.974-11.003 9.51-16.8 13.969a188 188 0 0 0-6.743 5.437c-75.464 63.4-176.959 96.319-296.457 109.032l-2.15.184c-24.16 2.043-48.428 2.28-72.66 2.242h-7.91q-9.393 0-18.786-.01-10.905-.01-21.81-.01c-19.124-.005-38.248-.019-57.371-.032L8937 3341v512h-334zm334 308v448l126.063.188 39.707.082c11.813.01 11.813.01 23.627.016q7.852.005 15.705.03 10.055.031 20.109.023 3.666.001 7.332.019c60.537.276 116.874-19.837 160.457-62.358 38.481-38.896 59.924-96.616 60.203-150.977l.021-2.788c.018-2.953.024-5.906.026-8.86l.002-3.059c-.016-14.995-.449-29.545-3.252-44.316l-.504-2.81c-6.529-35.728-20.693-70.457-44.496-98.19l-2.156-2.543c-2.225-2.545-4.515-5.007-6.844-7.457l-1.592-1.69c-12.62-13.321-26.413-24.257-42.408-33.31l-2.023-1.163c-40.754-23.2-85.851-29.027-132.008-28.95h-7.275q-9.676 0-19.353.012-9.105.007-18.208.006c-17.711.006-35.422.02-53.133.032zM2005 1439h2c1.333 1.467 2.59 3.003 3.813 4.563a411 411 0 0 0 11.687 13.937c3.735 4.282 7.425 8.583 11 13 4.078 5.033 8.305 9.923 12.558 14.808 4.922 5.656 9.773 11.37 14.604 17.104q3.384 4.015 6.776 8.025c.674.8.674.8 1.363 1.614 2.912 3.441 5.843 6.866 8.783 10.283 4.008 4.658 7.984 9.329 11.854 14.103 4.102 5.052 8.349 9.966 12.622 14.873 3.987 4.581 7.928 9.197 11.841 13.841 3.384 4.013 6.8 7.996 10.224 11.974 3.493 4.061 6.94 8.15 10.313 12.313 4.101 5.05 8.348 9.963 12.62 14.87 4.922 5.656 9.773 11.37 14.604 17.104q3.384 4.015 6.776 8.025c.674.8.674.8 1.363 1.614 2.912 3.441 5.843 6.866 8.783 10.283 4.008 4.658 7.984 9.329 11.854 14.103 4.102 5.052 8.349 9.966 12.622 14.873 3.987 4.581 7.928 9.197 11.841 13.841 3.384 4.013 6.8 7.996 10.224 11.974 3.493 4.061 6.94 8.15 10.313 12.313 4.101 5.05 8.348 9.963 12.62 14.87 4.922 5.656 9.773 11.37 14.604 17.104q3.384 4.015 6.776 8.025l1.363 1.614c2.912 3.441 5.843 6.866 8.783 10.283 4.008 4.658 7.984 9.329 11.854 14.103 4.101 5.052 8.348 9.964 12.62 14.87 4.922 5.657 9.773 11.37 14.604 17.105q3.384 4.015 6.776 8.025l1.363 1.614c2.912 3.441 5.843 6.866 8.783 10.283 4.008 4.658 7.984 9.329 11.854 14.103 4.102 5.052 8.349 9.966 12.622 14.873 3.987 4.581 7.928 9.197 11.841 13.841 3.384 4.013 6.8 7.996 10.224 11.974 3.493 4.061 6.94 8.15 10.313 12.313 4.101 5.05 8.348 9.963 12.62 14.87 4.922 5.656 9.773 11.37 14.604 17.104q3.384 4.015 6.776 8.025l1.363 1.614c2.912 3.441 5.843 6.866 8.783 10.283 4.008 4.658 7.984 9.329 11.854 14.103 4.102 5.052 8.349 9.966 12.622 14.873 3.987 4.581 7.928 9.197 11.841 13.841 3.384 4.013 6.8 7.996 10.224 11.974 3.493 4.061 6.94 8.15 10.313 12.313 4.101 5.05 8.348 9.963 12.62 14.87 4.922 5.656 9.773 11.37 14.604 17.104a6415 6415 0 0 0 8.139 9.639c2.912 3.441 5.843 6.866 8.783 10.283 4.008 4.658 7.984 9.329 11.854 14.104 4.102 5.051 8.349 9.965 12.622 14.872 3.987 4.581 7.928 9.197 11.841 13.841 3.384 4.013 6.8 7.996 10.224 11.974 3.493 4.061 6.94 8.15 10.313 12.313 4.101 5.05 8.348 9.963 12.62 14.87 4.922 5.656 9.773 11.37 14.604 17.104a6415 6415 0 0 0 8.139 9.639c2.912 3.441 5.843 6.866 8.783 10.283 4.008 4.658 7.984 9.329 11.854 14.104 4.102 5.051 8.349 9.965 12.622 14.872 3.987 4.581 7.928 9.197 11.841 13.841 3.384 4.013 6.8 7.996 10.224 11.974 3.493 4.061 6.94 8.15 10.313 12.313 4.101 5.05 8.348 9.963 12.62 14.87 4.922 5.656 9.773 11.37 14.604 17.104q3.384 4.015 6.776 8.026l1.363 1.613c2.912 3.441 5.843 6.866 8.783 10.283 4.008 4.658 7.984 9.329 11.854 14.104 4.102 5.051 8.349 9.965 12.622 14.872 3.987 4.581 7.928 9.197 11.841 13.841 3.384 4.013 6.8 7.996 10.224 11.974 3.493 4.061 6.94 8.15 10.313 12.313 4.101 5.05 8.348 9.963 12.62 14.87 4.922 5.656 9.773 11.37 14.604 17.104q3.384 4.015 6.776 8.026l1.363 1.613c2.912 3.441 5.843 6.866 8.783 10.283 4.008 4.658 7.984 9.329 11.854 14.104 4.102 5.051 8.349 9.965 12.622 14.872 3.99 4.585 7.94 9.2 11.848 13.855 2.31 2.747 4.643 5.47 7.022 8.16 34.76 39.422 49.218 85.555 47.07 137.675-2.852 40.384-21.067 75.288-46.559 105.844A424 424 0 0 0 2875.5 2727c-4.73 6.078-9.609 12.027-14.517 17.963a894 894 0 0 0-10.862 13.385c-2.853 3.567-5.738 7.109-8.621 10.652-3.516 4.32-7.027 8.644-10.5 13-4.04 5.067-8.133 10.09-12.223 15.117q-5.349 6.58-10.632 13.211a1420 1420 0 0 1-6.77 8.351c-4.657 5.714-9.281 11.445-13.812 17.258-5.215 6.682-10.6 13.215-16 19.747a2015 2015 0 0 0-22.407 27.628c-3.438 4.286-6.911 8.543-10.379 12.805-2.94 3.616-5.871 7.239-8.777 10.883-4.04 5.067-8.133 10.09-12.223 15.117q-5.349 6.58-10.632 13.211a1420 1420 0 0 1-6.77 8.351c-4.657 5.714-9.281 11.445-13.812 17.258-5.215 6.682-10.6 13.215-16 19.747a2015 2015 0 0 0-22.407 27.628c-3.438 4.286-6.911 8.543-10.379 12.805-2.94 3.616-5.871 7.239-8.777 10.883-4.04 5.067-8.133 10.09-12.223 15.117q-5.349 6.58-10.632 13.211a1420 1420 0 0 1-6.77 8.351c-4.657 5.714-9.281 11.445-13.812 17.258-5.215 6.682-10.6 13.215-16 19.747a2015 2015 0 0 0-22.407 27.628c-3.438 4.286-6.911 8.543-10.379 12.805-2.94 3.616-5.871 7.239-8.777 10.883-4.04 5.067-8.133 10.09-12.223 15.117q-5.349 6.58-10.632 13.211a1420 1420 0 0 1-6.77 8.351c-4.657 5.714-9.281 11.445-13.812 17.258-5.215 6.682-10.6 13.215-16 19.747a2015 2015 0 0 0-22.407 27.628c-3.438 4.286-6.911 8.543-10.379 12.805-2.94 3.616-5.871 7.239-8.777 10.883-4.04 5.067-8.133 10.09-12.223 15.117q-5.349 6.58-10.632 13.211a1420 1420 0 0 1-6.77 8.351c-4.657 5.714-9.281 11.445-13.812 17.258-5.215 6.682-10.6 13.215-16 19.747a2015 2015 0 0 0-22.407 27.628c-3.438 4.286-6.911 8.543-10.379 12.805-2.94 3.616-5.871 7.239-8.777 10.883-4.04 5.067-8.133 10.09-12.223 15.117q-5.349 6.58-10.632 13.211a1420 1420 0 0 1-6.77 8.351c-4.657 5.714-9.281 11.445-13.812 17.258-5.215 6.682-10.6 13.215-16 19.747a2015 2015 0 0 0-22.407 27.628c-3.438 4.286-6.911 8.543-10.379 12.805-2.94 3.616-5.871 7.239-8.777 10.883-4.04 5.067-8.133 10.09-12.223 15.117q-5.349 6.58-10.632 13.211a1420 1420 0 0 1-6.77 8.351c-4.657 5.714-9.281 11.445-13.812 17.258-5.215 6.682-10.6 13.215-16 19.747a2015 2015 0 0 0-22.407 27.628c-3.438 4.286-6.911 8.543-10.379 12.805-2.94 3.616-5.871 7.239-8.777 10.883-4.04 5.067-8.133 10.09-12.223 15.117q-5.349 6.58-10.632 13.211a1420 1420 0 0 1-6.77 8.351c-4.657 5.714-9.281 11.445-13.812 17.258-5.215 6.682-10.6 13.215-16 19.747a2015 2015 0 0 0-22.407 27.628c-3.438 4.286-6.911 8.543-10.379 12.805-2.94 3.616-5.871 7.239-8.777 10.883-4.573 5.733-9.201 11.422-13.836 17.105a623 623 0 0 0-5.578 6.946c-9.521 11.962-20.282 21.92-32.586 30.949l-1.68 1.256c-25.916 19.187-60.312 31.751-92.746 31.947l-2.366.022c-32.467.226-32.467.226-46.208-3.225l-2.488-.602c-29.862-7.392-57.093-21.216-79.512-42.398a735 735 0 0 0-4.062-3.437c-33.26-29.284-50.73-75.024-53.649-118.31-2.69-49.627 15.42-92.572 46.48-130.304 3.014-3.665 5.944-7.39 8.856-11.137 3.96-5.081 8.057-10.02 12.246-14.914 3.842-4.509 7.508-9.141 11.149-13.813a645 645 0 0 1 10.53-13.105c3.017-3.67 6.016-7.355 9.013-11.043l1.71-2.104a1912 1912 0 0 0 10.57-13.146c3.44-4.285 6.912-8.542 10.38-12.804 2.94-3.616 5.871-7.239 8.777-10.883 4.04-5.067 8.133-10.09 12.223-15.117q5.349-6.58 10.632-13.211c2.244-2.795 4.506-5.574 6.77-8.351 4.657-5.714 9.281-11.445 13.813-17.258 5.214-6.682 10.6-13.215 16-19.747a2015 2015 0 0 0 22.406-27.628c3.438-4.286 6.911-8.543 10.379-12.805 2.94-3.616 5.871-7.239 8.777-10.883 4.04-5.067 8.133-10.09 12.223-15.117q5.349-6.58 10.632-13.211c2.244-2.795 4.506-5.574 6.77-8.351 4.657-5.714 9.281-11.445 13.813-17.258 5.214-6.682 10.6-13.215 16-19.747a2015 2015 0 0 0 22.406-27.628c3.438-4.286 6.911-8.543 10.379-12.805 2.94-3.616 5.871-7.239 8.777-10.883 4.04-5.067 8.133-10.09 12.223-15.117q5.349-6.58 10.632-13.211c2.244-2.795 4.506-5.574 6.77-8.351 4.657-5.714 9.281-11.445 13.813-17.258 5.214-6.682 10.6-13.215 16-19.747a2015 2015 0 0 0 22.406-27.628c3.438-4.286 6.911-8.543 10.379-12.805 2.94-3.616 5.871-7.239 8.777-10.883 4.04-5.067 8.133-10.09 12.223-15.117q5.349-6.58 10.632-13.211c2.244-2.795 4.506-5.574 6.77-8.351 4.657-5.714 9.281-11.445 13.813-17.258 5.214-6.682 10.6-13.215 16-19.747a2015 2015 0 0 0 22.406-27.628c3.438-4.286 6.911-8.543 10.379-12.805 2.94-3.616 5.871-7.239 8.777-10.883 4.04-5.067 8.133-10.09 12.223-15.117q5.349-6.58 10.632-13.211c2.244-2.795 4.506-5.574 6.77-8.351 4.657-5.714 9.281-11.445 13.813-17.258 5.214-6.682 10.6-13.215 16-19.747a2015 2015 0 0 0 22.406-27.628c3.438-4.286 6.911-8.543 10.379-12.805 2.94-3.616 5.871-7.239 8.777-10.883 4.04-5.067 8.133-10.09 12.223-15.117q5.349-6.58 10.632-13.211c2.244-2.795 4.506-5.574 6.77-8.351 4.657-5.714 9.281-11.445 13.813-17.258 5.214-6.682 10.6-13.215 16-19.747a2015 2015 0 0 0 22.406-27.628c3.438-4.286 6.911-8.543 10.379-12.805 2.94-3.616 5.871-7.239 8.777-10.883 4.04-5.067 8.133-10.09 12.223-15.117q5.349-6.58 10.632-13.211c2.244-2.795 4.506-5.574 6.77-8.351 4.657-5.714 9.281-11.445 13.813-17.258 5.214-6.682 10.6-13.215 16-19.747 7.545-9.128 15.028-18.312 22.37-27.605a358 358 0 0 1 5.602-6.734l1.822-2.172a386 386 0 0 1 3.641-4.274l1.662-1.992 1.512-1.775c1.148-1.731 1.148-1.731.753-3.798-1.346-3.308-3.824-5.77-6.175-8.403l-3.3-3.774-1.69-1.92c-2.434-2.782-4.817-5.605-7.198-8.432l-2.726-3.226-4.065-4.815-4.084-4.834-1.363-1.613a1641 1641 0 0 0-8.783-10.283c-4.008-4.658-7.984-9.329-11.854-14.104-4.102-5.051-8.349-9.965-12.622-14.872-3.987-4.581-7.928-9.197-11.841-13.841-3.384-4.013-6.8-7.996-10.224-11.974a547 547 0 0 1-10.312-12.312c-4.102-5.052-8.349-9.964-12.62-14.87-4.923-5.657-9.774-11.37-14.605-17.105a6415 6415 0 0 0-6.776-8.026l-1.363-1.613a1639 1639 0 0 0-8.783-10.283c-4.008-4.658-7.984-9.329-11.854-14.104-4.102-5.051-8.349-9.965-12.622-14.872-3.987-4.581-7.928-9.197-11.841-13.841-3.384-4.013-6.8-7.996-10.224-11.974a547 547 0 0 1-10.312-12.312c-4.102-5.052-8.349-9.964-12.62-14.87-4.923-5.657-9.774-11.37-14.605-17.105a6415 6415 0 0 0-6.776-8.026l-1.363-1.613a1639 1639 0 0 0-8.783-10.283c-4.008-4.658-7.984-9.329-11.854-14.104-4.102-5.051-8.349-9.965-12.622-14.872-3.987-4.581-7.928-9.197-11.841-13.841-3.384-4.013-6.8-7.996-10.224-11.974a547 547 0 0 1-10.312-12.312c-4.102-5.052-8.349-9.964-12.62-14.87-4.923-5.657-9.774-11.37-14.605-17.105a6415 6415 0 0 0-6.776-8.026l-1.363-1.613a1639 1639 0 0 0-8.783-10.283c-4.008-4.658-7.984-9.329-11.854-14.104-4.102-5.051-8.349-9.965-12.622-14.872-3.987-4.581-7.928-9.197-11.841-13.841-3.384-4.013-6.8-7.996-10.224-11.974a547 547 0 0 1-10.312-12.312c-4.102-5.052-8.349-9.964-12.62-14.87-4.923-5.657-9.774-11.37-14.605-17.105a6415 6415 0 0 0-6.776-8.026l-1.363-1.613a1639 1639 0 0 0-8.783-10.283c-4.008-4.658-7.984-9.329-11.854-14.104-4.102-5.051-8.349-9.965-12.622-14.872-3.987-4.581-7.928-9.197-11.841-13.841-3.384-4.013-6.8-7.996-10.224-11.974a547 547 0 0 1-10.312-12.312c-4.102-5.052-8.349-9.964-12.62-14.87-4.923-5.657-9.774-11.37-14.605-17.105a6415 6415 0 0 0-6.775-8.025l-1.364-1.614a1639 1639 0 0 0-8.783-10.283c-4.008-4.658-7.984-9.329-11.853-14.103-4.102-5.052-8.349-9.964-12.62-14.87-4.923-5.657-9.774-11.37-14.605-17.105a6415 6415 0 0 0-6.775-8.025l-1.364-1.614a1639 1639 0 0 0-8.783-10.283c-4.008-4.658-7.984-9.329-11.853-14.103-4.103-5.052-8.35-9.966-12.623-14.873-3.987-4.581-7.928-9.197-11.841-13.841-3.384-4.013-6.8-7.996-10.224-11.974a547 547 0 0 1-10.312-12.312c-4.102-5.052-8.349-9.964-12.62-14.87-4.918-5.65-9.762-11.359-14.587-17.087q-2.097-2.481-4.204-4.954c-5.498-6.463-10.9-12.985-16.152-19.652a70 70 0 0 1 4.477-9.57l1.507-2.673 1.641-2.882 1.731-3.052c5.082-8.917 10.31-17.746 15.56-26.564a1759 1759 0 0 0 13.522-23.134 3484 3484 0 0 1 16.124-27.75l1.085-1.847 4.28-7.289c5.139-8.754 10.247-17.527 15.358-26.298q2.653-4.55 5.309-9.097a9911 9911 0 0 0 22.784-39.23c4.785-8.282 9.577-16.56 14.435-24.802a4979 4979 0 0 0 26.562-45.624c5.791-10.065 11.685-20.065 17.622-30.044 5.398-9.087 10.698-18.226 15.956-27.394 1.676-2.92 3.361-5.835 5.047-8.75l1.69-2.964 1.615-2.782 1.429-2.486zM1064.125 390.688l2.173.006c45.157.217 88.042 16.898 120.702 48.306l1.584 1.49c24.553 23.16 41.31 52.764 49.416 85.51l.637 2.488c6.387 26.014 5.89 56.599-.637 82.512l-.535 2.248c-5.984 24.666-18.167 48.35-34.465 67.752-.465.555-.93 1.11-1.41 1.68a917 917 0 0 1-9.045 10.54c-2.588 2.98-5.161 5.973-7.733 8.967l-1.525 1.776a504 504 0 0 0-8.725 10.475c-4.101 5.05-8.348 9.963-12.62 14.87-4.922 5.656-9.773 11.37-14.604 17.104a6415 6415 0 0 1-6.775 8.025l-1.364 1.614c-3.42 4.042-6.87 8.06-10.324 12.074a548 548 0 0 0-10.312 12.313c-4.103 5.051-8.35 9.965-12.623 14.872-3.987 4.581-7.928 9.197-11.841 13.841-3.384 4.013-6.8 7.996-10.224 11.974a547 547 0 0 0-10.312 12.313c-4.102 5.05-8.349 9.963-12.62 14.87-4.923 5.656-9.774 11.37-14.605 17.104a6415 6415 0 0 1-6.775 8.025l-1.364 1.614c-3.42 4.042-6.87 8.06-10.324 12.074a548 548 0 0 0-10.312 12.313c-4.103 5.051-8.35 9.965-12.623 14.872-3.987 4.581-7.928 9.197-11.841 13.841-3.384 4.013-6.8 7.996-10.224 11.974a547 547 0 0 0-10.312 12.313c-4.102 5.05-8.349 9.963-12.62 14.87-4.923 5.656-9.774 11.37-14.605 17.104a6415 6415 0 0 1-8.139 9.639c-3.42 4.042-6.87 8.06-10.324 12.074a548 548 0 0 0-10.312 12.313c-4.103 5.051-8.35 9.965-12.623 14.872-3.987 4.581-7.928 9.197-11.841 13.841-3.384 4.013-6.8 7.996-10.224 11.974a547 547 0 0 0-10.312 12.313c-4.102 5.05-8.349 9.963-12.62 14.87-4.923 5.656-9.774 11.37-14.605 17.104a6415 6415 0 0 1-8.139 9.639c-3.42 4.042-6.87 8.06-10.324 12.074a548 548 0 0 0-10.312 12.313c-4.103 5.051-8.35 9.965-12.623 14.872-3.987 4.581-7.928 9.197-11.841 13.841-3.384 4.013-6.8 7.996-10.224 11.974a547 547 0 0 0-10.312 12.313c-4.102 5.05-8.349 9.963-12.62 14.87-4.923 5.656-9.774 11.37-14.605 17.104a6415 6415 0 0 1-6.775 8.025l-1.364 1.614c-3.42 4.042-6.87 8.06-10.324 12.074a548 548 0 0 0-10.312 12.313c-4.102 5.05-8.349 9.963-12.62 14.87-4.923 5.656-9.774 11.37-14.605 17.104a6415 6415 0 0 1-6.775 8.025l-1.364 1.614c-3.42 4.042-6.87 8.06-10.324 12.074a548 548 0 0 0-10.312 12.313c-4.103 5.051-8.35 9.965-12.623 14.872-3.987 4.581-7.928 9.197-11.841 13.841-3.384 4.013-6.8 7.996-10.224 11.974a547 547 0 0 0-10.312 12.313c-4.102 5.05-8.349 9.963-12.62 14.87-4.923 5.656-9.774 11.37-14.605 17.104a6415 6415 0 0 1-6.775 8.025l-1.364 1.614c-3.42 4.042-6.87 8.06-10.324 12.074a548 548 0 0 0-10.312 12.313c-4.103 5.051-8.35 9.965-12.623 14.872-3.987 4.581-7.928 9.197-11.841 13.841-3.384 4.013-6.8 7.996-10.224 11.974a547 547 0 0 0-10.312 12.313c-4.102 5.05-8.349 9.963-12.62 14.87-4.923 5.656-9.774 11.37-14.605 17.104a6415 6415 0 0 1-6.776 8.025l-1.363 1.614c-3.42 4.042-6.87 8.06-10.324 12.074a548 548 0 0 0-10.312 12.313c-4.103 5.051-8.35 9.965-12.623 14.872q-5.3 6.085-10.502 12.253a2537 2537 0 0 1-14.614 17.148l-1.377 1.624a117 117 0 0 1-3.171 3.494l-1.694 1.835-1.567 1.647c-1.224 1.654-1.224 1.654-.802 3.719 1.249 3.126 3.371 5.57 5.474 8.158l1.46 1.827c5.15 6.416 10.399 12.751 15.642 19.09 3.07 3.716 6.09 7.47 9.09 11.243 2.853 3.567 5.738 7.109 8.621 10.652a1980 1980 0 0 1 12.344 15.313c2.869 3.575 5.763 7.13 8.656 10.687a1983 1983 0 0 1 12.344 15.313c2.869 3.575 5.763 7.13 8.656 10.687a1983 1983 0 0 1 12.344 15.313c2.869 3.575 5.763 7.13 8.656 10.687a1946 1946 0 0 1 12.355 15.328c2.244 2.795 4.506 5.574 6.77 8.351 4.657 5.714 9.281 11.445 13.813 17.258 5.214 6.682 10.6 13.215 16 19.747a2015 2015 0 0 1 22.406 27.629c2.869 3.575 5.763 7.13 8.656 10.687a1983 1983 0 0 1 12.344 15.313c2.869 3.575 5.763 7.13 8.656 10.687a1946 1946 0 0 1 12.355 15.328c2.244 2.795 4.506 5.574 6.77 8.351 4.657 5.714 9.281 11.445 13.813 17.258 5.214 6.682 10.6 13.215 16 19.747a2015 2015 0 0 1 22.406 27.629c2.869 3.575 5.763 7.13 8.656 10.687a1983 1983 0 0 1 12.344 15.313c2.869 3.575 5.763 7.13 8.656 10.687a1946 1946 0 0 1 12.355 15.328c2.244 2.795 4.506 5.574 6.77 8.351 4.657 5.714 9.281 11.445 13.813 17.258 5.214 6.682 10.6 13.215 16 19.747a2015 2015 0 0 1 22.406 27.628c2.869 3.576 5.763 7.132 8.656 10.688a1983 1983 0 0 1 12.344 15.313c2.869 3.575 5.763 7.13 8.656 10.687a1946 1946 0 0 1 12.355 15.328c2.244 2.795 4.506 5.574 6.77 8.351 4.657 5.714 9.281 11.445 13.813 17.258 5.214 6.682 10.6 13.215 16 19.747a2015 2015 0 0 1 22.406 27.628c2.869 3.576 5.763 7.132 8.656 10.688a1983 1983 0 0 1 12.344 15.313c2.869 3.575 5.763 7.13 8.656 10.687a1946 1946 0 0 1 12.355 15.328c2.244 2.795 4.506 5.574 6.77 8.351 4.657 5.714 9.281 11.445 13.813 17.258 5.214 6.682 10.6 13.215 16 19.747a2015 2015 0 0 1 22.406 27.628c2.869 3.576 5.763 7.132 8.656 10.688a1983 1983 0 0 1 12.344 15.313c2.869 3.575 5.763 7.13 8.656 10.687a2250 2250 0 0 1 14.5 18l2.277 2.52c1.723 2.48 1.723 2.48 1.48 4.355-.843 2.366-1.896 4.414-3.136 6.598l-1.517 2.683-1.667 2.907-1.744 3.065c-5.104 8.927-10.345 17.77-15.605 26.606-7.15 12.02-14.124 24.138-21.088 36.266-8.243 14.354-16.553 28.661-25.015 42.888-5.232 8.809-10.371 17.668-15.479 26.549-5.88 10.224-11.821 20.412-17.772 30.595q-4.37 7.483-8.734 14.968l-3.5 6-1.75 3-35 60-3.502 6.004q-4.354 7.465-8.713 14.926A8005 8005 0 0 0 847 2723h-3a80 80 0 0 1-4.812-5.937q-1.476-1.938-2.958-3.872l-1.584-2.073c-2.802-3.605-5.727-7.107-8.646-10.618a721 721 0 0 1-13.816-17.191c-3.649-4.67-7.404-9.245-11.184-13.809-4.236-5.115-8.42-10.259-12.5-15.5-5.19-6.664-10.556-13.175-15.937-19.684a2015 2015 0 0 1-22.407-27.628c-2.869-3.576-5.763-7.132-8.656-10.688a1983 1983 0 0 1-12.344-15.312c-2.869-3.576-5.763-7.132-8.656-10.688a1946 1946 0 0 1-12.355-15.328 1420 1420 0 0 0-6.77-8.351c-4.657-5.714-9.281-11.445-13.812-17.258-5.215-6.682-10.6-13.215-16-19.747a2015 2015 0 0 1-22.407-27.628c-2.869-3.576-5.763-7.132-8.656-10.688a1983 1983 0 0 1-12.344-15.312c-2.869-3.576-5.763-7.132-8.656-10.688a1946 1946 0 0 1-12.355-15.328 1420 1420 0 0 0-6.77-8.351c-4.657-5.714-9.281-11.445-13.812-17.258-5.215-6.682-10.6-13.215-16-19.747a2015 2015 0 0 1-22.407-27.628c-2.869-3.576-5.763-7.132-8.656-10.688a1983 1983 0 0 1-12.344-15.312c-2.869-3.576-5.763-7.132-8.656-10.688a1946 1946 0 0 1-12.355-15.328 1420 1420 0 0 0-6.77-8.351c-4.657-5.714-9.281-11.445-13.812-17.258-5.215-6.682-10.6-13.215-16-19.747a2015 2015 0 0 1-22.407-27.628c-2.869-3.576-5.763-7.132-8.656-10.688a1983 1983 0 0 1-12.344-15.312c-2.869-3.576-5.763-7.132-8.656-10.688a1946 1946 0 0 1-12.355-15.328 1420 1420 0 0 0-6.77-8.351c-4.657-5.714-9.281-11.445-13.812-17.258-5.215-6.682-10.6-13.215-16-19.747a2015 2015 0 0 1-22.407-27.628c-2.869-3.576-5.763-7.132-8.656-10.688a1983 1983 0 0 1-12.344-15.312c-2.869-3.576-5.763-7.132-8.656-10.688a1946 1946 0 0 1-12.355-15.328 1420 1420 0 0 0-6.77-8.351c-4.657-5.714-9.281-11.445-13.812-17.258-5.215-6.682-10.6-13.215-16-19.747a2015 2015 0 0 1-22.407-27.629c-2.869-3.575-5.763-7.13-8.656-10.687a1983 1983 0 0 1-12.344-15.312c-2.869-3.576-5.763-7.132-8.656-10.688a1946 1946 0 0 1-12.355-15.328 1420 1420 0 0 0-6.77-8.351c-4.657-5.714-9.281-11.445-13.812-17.258-5.215-6.682-10.6-13.215-16-19.747a2015 2015 0 0 1-22.407-27.629c-2.869-3.575-5.763-7.13-8.656-10.687a1983 1983 0 0 1-12.344-15.312c-2.869-3.576-5.763-7.132-8.656-10.688a1946 1946 0 0 1-12.355-15.328 1420 1420 0 0 0-6.77-8.351c-4.657-5.714-9.281-11.445-13.812-17.258-5.215-6.682-10.6-13.215-16-19.747-5.103-6.172-10.15-12.39-15.187-18.616a1810 1810 0 0 0-3.544-4.36A585 585 0 0 1 41 1729l-1.322-1.667C19.225 1701.42 5.838 1671.747 1 1639l-.286-1.92c-5.936-45.337 6.184-93.02 33.583-129.642 3.984-5.158 8.298-10.037 12.613-14.918a266 266 0 0 0 7.59-9.02c4.078-5.034 8.306-9.925 12.56-14.81 3.987-4.581 7.928-9.198 11.841-13.841 3.384-4.013 6.8-7.996 10.224-11.974 3.493-4.061 6.94-8.15 10.313-12.312 4.102-5.052 8.349-9.966 12.622-14.873 3.987-4.581 7.928-9.197 11.841-13.841 3.384-4.013 6.8-7.996 10.224-11.974 3.493-4.061 6.94-8.15 10.313-12.312 4.101-5.052 8.348-9.964 12.62-14.87 4.922-5.657 9.773-11.37 14.604-17.105a6415 6415 0 0 1 8.139-9.639c3.42-4.042 6.87-8.06 10.324-12.074 3.493-4.061 6.94-8.15 10.313-12.312 4.102-5.052 8.349-9.966 12.622-14.873 3.987-4.581 7.928-9.197 11.841-13.841 3.384-4.013 6.8-7.996 10.224-11.974 3.493-4.061 6.94-8.15 10.313-12.312 4.101-5.052 8.348-9.964 12.62-14.87 4.922-5.657 9.773-11.37 14.604-17.105a6415 6415 0 0 1 8.139-9.639c3.42-4.042 6.87-8.06 10.324-12.074 3.493-4.061 6.94-8.15 10.313-12.312 4.102-5.052 8.349-9.966 12.622-14.873 3.987-4.581 7.928-9.197 11.841-13.841 3.384-4.013 6.8-7.996 10.224-11.974 3.493-4.061 6.94-8.15 10.313-12.312 4.101-5.052 8.348-9.964 12.62-14.87 4.922-5.657 9.773-11.37 14.604-17.105a6415 6415 0 0 1 8.139-9.639c3.42-4.042 6.87-8.06 10.324-12.074 3.493-4.061 6.94-8.15 10.313-12.312 4.102-5.052 8.349-9.966 12.622-14.873 3.987-4.581 7.928-9.197 11.841-13.841 3.384-4.013 6.8-7.996 10.224-11.974 3.493-4.061 6.94-8.15 10.313-12.312 4.101-5.052 8.348-9.964 12.62-14.87 4.922-5.657 9.773-11.37 14.604-17.105a6415 6415 0 0 1 8.139-9.639c3.42-4.042 6.87-8.06 10.324-12.074 3.493-4.061 6.94-8.15 10.313-12.312 4.102-5.052 8.349-9.966 12.622-14.873 3.987-4.581 7.928-9.197 11.841-13.841 3.384-4.013 6.8-7.996 10.224-11.974 3.493-4.061 6.94-8.15 10.313-12.312 4.101-5.052 8.348-9.964 12.62-14.87 4.922-5.657 9.773-11.37 14.604-17.105q3.384-4.015 6.775-8.025l1.364-1.614c3.42-4.042 6.87-8.06 10.324-12.074 3.493-4.061 6.94-8.15 10.313-12.312 4.102-5.052 8.349-9.966 12.622-14.873 3.987-4.581 7.928-9.197 11.841-13.841 3.384-4.013 6.8-7.996 10.224-11.974 3.493-4.061 6.94-8.15 10.313-12.312 4.101-5.052 8.348-9.964 12.62-14.87 4.922-5.657 9.773-11.37 14.604-17.105q3.384-4.015 6.775-8.025l1.364-1.614c3.42-4.042 6.87-8.06 10.324-12.074 3.493-4.061 6.94-8.15 10.313-12.312 4.102-5.052 8.349-9.966 12.622-14.873 3.987-4.581 7.928-9.197 11.841-13.841 3.384-4.013 6.8-7.996 10.224-11.974 3.493-4.061 6.94-8.15 10.313-12.312 4.101-5.052 8.348-9.964 12.62-14.87 4.922-5.657 9.773-11.37 14.604-17.105q3.384-4.016 6.775-8.025l1.364-1.614c3.42-4.042 6.87-8.06 10.324-12.074 3.493-4.061 6.94-8.15 10.313-12.312 4.102-5.052 8.349-9.966 12.622-14.873 3.987-4.581 7.928-9.197 11.841-13.841 3.384-4.013 6.8-7.996 10.224-11.974 3.493-4.061 6.94-8.15 10.313-12.312 4.101-5.052 8.348-9.964 12.62-14.87 4.922-5.657 9.773-11.37 14.604-17.105q3.385-4.015 6.775-8.025l1.364-1.614c3.42-4.042 6.87-8.06 10.324-12.074 3.493-4.061 6.94-8.15 10.313-12.312 4.613-5.68 9.407-11.192 14.214-16.708a965 965 0 0 0 8.18-9.539c33.356-39.243 82.773-61.91 134.293-61.628" />
  <path fill="#fff"
    d="m4822 393 1 574 22-22c77.344-67.676 169.956-104.072 328.987-106.734 41 2.963 81.001 10.668 120.013 23.734l2.93.971c49.304 16.528 95.562 43.474 133.707 78.85a192 192 0 0 0 6.176 5.429c9.03 7.855 17.507 16.578 25.187 25.75l2.438 2.809c17.575 20.315 32.653 42.65 45.562 66.191l1.46 2.662c28.308 52.048 44.774 108.965 51.852 167.65l.447 3.67c2.715 24.491 3.549 49.078 3.486 73.702-.008 3.646-.003 7.291 0 10.937q.007 9.526-.007 19.053c-.012 9.443-.012 18.886-.01 28.33q.003 23.841-.017 47.683-.018 23.573-.021 47.146v2.972l-.003 14.945q-.007 52.791-.036 105.582a353839 353839 0 0 0-.043 108.965l-.012 52.475c-.019 80.743-.06 161.485-.096 242.228h-308l-.113-136.758a549942 549942 0 0 0-.153-133.613q-.051-45.514-.082-91.027a133225 133225 0 0 0-.119-109.515q-.026-20.913-.031-41.825-.007-21.072-.048-42.144-.023-12.487-.018-24.976.003-8.382-.023-16.763-.016-4.75-.006-9.501c.126-65.192-15.035-129.22-60.407-177.878l-2.078-2.242c-10.795-11.234-23.504-19.963-36.922-27.758l-2.026-1.18c-34.954-20.06-75.169-27.044-115.037-27.07l-2.826-.002c-15.226.017-30.074.654-45.111 3.252l-2.87.488c-50.673 8.99-96.395 34.328-126.443 76.617-33.739 48.44-41.824 105.886-41.845 163.509l-.015 7.763q-.016 8.406-.024 16.813-.012 12.5-.034 25-.035 21.03-.06 42.064-.024 20.812-.056 41.626l-.004 2.618-.02 13.164q-.071 46.574-.132 93.147a567220 567220 0 0 1-.201 142.42c-.105 71.257-.2 142.514-.296 213.771h-308l-.025-229.21v-8.685q-.011-101.403-.017-202.805v-6.583l-.013-218.028q-.004-80.636-.014-161.271v-3.505l-.007-55.94q-.01-80.528-.015-161.057v-3.343l-.004-101.866v-3.23q-.002-51.593-.011-103.187a483894 483894 0 0 1-.007-118.212v-2.838q0-22.308-.007-44.617-.006-21.897-.002-43.796.003-12.862-.004-25.726-.005-8.52 0-17.039.004-4.845-.001-9.689-.005-5.184.003-10.368l-.008-3.07.007-2.756v-2.391C4514 429 4514 429 4515 428a93 93 0 0 1 4.844-.67l3.197-.375 3.555-.404 3.744-.436q5.166-.6 10.334-1.19 5.564-.64 11.127-1.286 10.91-1.263 21.82-2.517 12.695-1.46 25.39-2.928 22.65-2.617 45.3-5.223a99400 99400 0 0 0 49.452-5.704q25.01-2.889 50.02-5.772 8.856-1.02 17.71-2.044 10.791-1.246 21.582-2.486 5.508-.633 11.017-1.27 5.966-.69 11.93-1.373l3.536-.41 3.22-.368 2.784-.32C4818 393 4818 393 4822 393" />
  <path fill="#18a0ba"
    d="m11492 2774 3.148 1.445c30.64 14.147 59.887 31.233 86.852 51.555l2.238 1.68c23.73 17.859 45.788 37.307 66.825 58.258l2.38 2.365c4.177 4.19 8.19 8.464 12.049 12.948 1.871 2.17 3.814 4.27 5.758 6.374 5.055 5.61 9.684 11.508 14.288 17.489a480 480 0 0 0 4.349 5.507c58.45 73.863 92.822 165.26 113.113 321.379l.125 1.964c1.028 16.192 1.076 32.38 1.063 48.599l-.001 2.108c-.01 21.834-.248 43.568-2.187 65.329l-.184 2.128c-7.875 90.695-32.197 179.86-98.816 286.872l-1.612 2.256c-10.553 14.697-21.68 28.899-34.01 42.154a266 266 0 0 0-5.578 6.295c-3.517 4.024-7.2 7.84-10.984 11.611l-1.997 2a3324 3324 0 0 1-4.152 4.148q-3.148 3.14-6.286 6.292l-4.065 4.06-1.863 1.87c-4.323 4.3-8.831 8.337-13.453 12.314q-1.625 1.425-3.246 2.852c-8.944 7.8-18.251 15.043-27.754 22.148l-1.926 1.45c-59.876 45.001-128.472 75.236-201.074 92.55l-3.452.827c-28.504 6.724-57.464 10.846-86.61 13.485l-2.703.247c-21.943 1.968-43.833 2.65-65.86 2.628l-3.498-.001c-83.806-.119-167.987-13.03-308.877-77.186l-2.915-1.711c-24.05-14.185-46.716-30.313-68.085-48.289l-1.61-1.354q-2.639-2.223-5.265-4.459l-1.565-1.324c-11.088-9.495-21.547-19.664-31.864-29.981a1949 1949 0 0 0-5.876-5.837c-6.364-6.336-12.45-12.692-18.004-19.761-1.771-2.228-3.631-4.322-5.566-6.409-63.573-70.874-99.395-165.423-123.5-314.75l-.252-2.758c-2.104-23.343-2.705-46.562-2.685-69.992v-2.184c.01-21.789.175-43.476 2.187-65.191l.39-4.36c7.797-85.557 29.998-170.698 122.118-314.75 2.297-2.664 4.493-5.384 6.68-8.14 9.798-11.993 20.893-22.916 31.812-33.875l2.642-2.656c4.42-4.41 8.905-8.675 13.642-12.744 2.161-1.858 4.248-3.791 6.341-5.725 5.632-5.081 11.577-9.71 17.574-14.347a479 479 0 0 0 5.211-4.126c18.148-14.511 37.48-27.638 57.59-39.277l2.63-1.53c69.908-40.493 147.669-63.507 576.37-22.47m-318 232-3.092.52c-29.532 5.084-57.473 14.345-83.908 28.48l-2.006 1.062c-13.697 7.294-26.067 16.002-37.994 25.938l-1.609 1.335c-11.011 9.173-21.276 18.684-30.223 29.942a199 199 0 0 1-4.305 5.227c-41.112 48.345-59.917 113.267-64.863 175.496l-.34 3.973c-6.222 82.195 11.225 169.749 65.34 234.027a363 363 0 0 0 6.977 7.79c1.779 1.943 3.464 3.934 5.148 5.96 18.929 21.577 43.644 37.989 68.875 51.25l2.12 1.136c22.074 11.7 47.373 19.326 71.88 23.864l2.343.45c72.133 13.642 152.327.144 213.31-41.395 5.957-4.151 11.725-8.455 17.347-13.055l1.612-1.304c14.841-12.07 28.808-25.533 40.13-40.99a298 298 0 0 1 3.945-5.202c38.264-50.124 58.241-116.489 58.516-179.215l.021-3.268q.025-5.197.026-10.396l.002-3.593c-.016-18.202-.52-36.007-3.252-54.032l-.52-3.517c-8.113-53.282-27.626-105.817-62.48-147.483l-2.34-2.898c-10.815-13.264-22.99-25.78-36.66-36.102l-1.973-1.532c-44.848-34.8-102.543-55.39-159.468-55.671l-2.902-.021c-3.073-.018-6.146-.024-9.22-.026l-3.187-.002c-15.953.016-31.497.508-47.25 3.252" />
  <path fill="#fff"
    d="m5562 2768 3.34 1.519c41.028 18.819 78.8 43.8 112.148 74.215a224 224 0 0 0 4.23 3.739c5.708 4.903 11.037 10.133 16.345 15.465l2.603 2.591c4.987 4.995 9.753 10.103 14.334 15.471q1.424 1.624 2.852 3.246c7.8 8.944 15.047 18.25 22.148 27.754l1.481 1.974c57.535 76.81 90.858 169.047 109.269 309.151l.18 2.155c.4 4.904.749 9.81 1.07 14.72l.146 2.152c1.103 16.806 1.095 33.638 1.104 50.473l.003 2.28c.029 28.111-.928 56.07-3.253 84.095l-.251 3.033q-.385 4.58-.788 9.158l-.245 2.847-.238 2.632-.207 2.32C5848 3401 5848 3401 5847 3404h-818c13.919 48.716 31.01 93.51 63 133l1.244 1.556c6.761 8.405 14.219 16.113 21.819 23.756l2.756 2.785c6.086 6.058 12.434 11.595 19.181 16.903l2.059 1.633c59.977 47.057 138.18 71.275 214.07 71.57l3.685.021c3.916.018 7.832.024 11.748.026l2.027.001c21.93.008 43.633-.531 65.411-3.251l2.098-.257c86.926-10.717 170.34-40.722 245.902-84.743l2.458-1.423c7.97-4.616 15.84-9.283 23.44-14.495L5712 3550c3 1 3 1 4.647 3.803q.916 1.888 1.802 3.79l.998 2.077c1.09 2.272 2.165 4.551 3.24 6.83q1.144 2.394 2.292 4.787 2.366 4.94 4.718 9.885c3.075 6.456 6.2 12.887 9.326 19.318 1.652 3.398 3.298 6.798 4.946 10.198q6.26 12.909 12.531 25.812a52302 52302 0 0 1 21.508 44.328q4.08 8.415 8.165 16.83 4.001 8.246 7.993 16.495 2.796 5.774 5.612 11.54c1.412 2.892 2.816 5.787 4.222 8.682l1.548 3.152 1.39 2.871 1.214 2.49C5809 3745 5809 3745 5809 3748c-1.75 1.375-1.75 1.375-4.215 2.785l-2.743 1.593-2.98 1.684-6.105 3.524-3.072 1.757a712 712 0 0 0-9.595 5.632c-9.321 5.54-18.773 10.83-28.29 16.025l-3.059 1.676c-61.646 33.71-127.075 60.102-194.941 78.324l-2.019.544c-49.1 13.207-99.325 21.357-149.981 25.456l-2.26.184c-41.67 3.323-84.082 3.297-125.74-.184l-2.314-.191c-77.856-6.516-153.028-25.128-223.686-58.809l-2.79-1.327c-28.243-13.522-55.037-30.063-80.21-48.673l-1.923-1.408c-8.275-6.066-16.303-12.321-24.073-19.022-2.75-2.353-5.55-4.624-8.379-6.883-6.507-5.3-12.558-11.066-18.65-16.83a724 724 0 0 0-6.022-5.587c-11.546-10.631-11.546-10.631-16.36-16.426-1.88-2.176-3.906-4.151-5.968-6.157-4.155-4.098-7.813-8.47-11.457-13.023-1.906-2.342-3.874-4.57-5.918-6.789-6.21-6.914-11.683-14.443-17.25-21.875l-1.499-1.996c-54.83-73.208-87.163-160.212-106.501-308.004l-.143-2.12c-1.07-16.321-1.058-32.657-1.044-49.005v-2.148c.01-21.634.198-43.165 2.187-64.727l.191-2.14c6.01-67.117 20.113-134.166 47.809-195.86l1.483-3.331c18.831-42.097 42.676-82.839 73.017-117.77 2.338-2.711 4.58-5.476 6.813-8.274 9.598-11.73 20.371-22.403 31.062-33.125l1.563-1.571c5.84-5.863 11.75-11.57 18.062-16.929q1.624-1.424 3.246-2.852c8.283-7.223 16.867-13.966 25.654-20.563 1.988-1.5 3.96-3.02 5.928-4.546 26.078-20.104 54.818-36.28 84.172-51.039l2.515-1.28c72.927-36.944 157.614-52.76 518.485-8.72m-371 230-2.431 1.019c-18.478 7.895-35.754 18.639-51.569 30.981l-2.715 2.074c-17.323 13.492-34.034 29.482-47.023 47.21a347 347 0 0 1-3.985 5.282c-21.105 27.813-36.234 59.756-47.277 92.747l-.721 2.145a905 905 0 0 0-2.029 6.155l-1.172 3.587a110 110 0 0 0-2.145 9.037l-.533 2.71-.4 2.053a1325680 1325680 0 0 0 180.833.873q30 .144 60.002.29 31.023.153 62.046.299 17.323.082 34.648.168c65.49.326 130.98.428 196.471.37q.02-4.045.03-8.091l.012-2.291c.014-6.473-.438-12.817-1.23-19.243l-.405-3.341c-5.986-46.561-24.892-90.85-57.995-124.592a357 357 0 0 1-4.111-4.294c-6.9-7.151-14.365-13.212-22.301-19.148l-1.699-1.293c-20.696-15.711-44.618-26.87-69.301-34.707l-2.49-.8c-20.572-6.522-42.003-10.477-63.51-12.2l-2.032-.17c-50.365-4.086-100.395 3.657-146.968 23.17M9792 885l3.34 1.519c41.028 18.819 78.8 43.8 112.148 74.215a224 224 0 0 0 4.23 3.739c5.708 4.903 11.037 10.133 16.344 15.465l2.604 2.591c4.987 4.995 9.753 10.103 14.334 15.471q1.425 1.624 2.852 3.246c7.8 8.944 15.047 18.25 22.148 27.754l1.481 1.974c54.36 72.572 86.923 158.792 109.269 309.089l.18 2.142c.404 4.929.755 9.86 1.07 14.795l.147 2.257c1.065 17.046 1.053 34.108 1.04 51.18v2.24c-.005 23.492-.334 46.894-2.187 70.323l-.183 2.347c-.656 8.392-1.354 16.78-2.133 25.16l-.327 3.52C10078 1517 10078 1517 10077 1521h-818c13.919 48.716 31.01 93.51 63 133l1.244 1.556c6.761 8.405 14.219 16.113 21.818 23.756l2.757 2.785c6.086 6.058 12.434 11.595 19.181 16.903l2.059 1.633c47.69 37.417 105.207 58.556 164.754 67.617l2.99.458c20.761 2.965 41.436 3.665 62.385 3.604l3.989-.005c21.075-.04 41.904-.695 62.823-3.307l2.098-.257c64.34-7.932 127.243-26.146 185.902-53.743l2.898-1.358c25.388-11.93 50.405-24.66 74.063-39.787l2.252-1.438a301 301 0 0 0 4.056-2.662c1.53-.994 3.126-1.886 4.731-2.755 3 1 3 1 4.647 3.803q.916 1.888 1.802 3.79l.998 2.077c1.09 2.272 2.165 4.551 3.24 6.83q1.145 2.394 2.292 4.787 2.366 4.94 4.718 9.885c3.075 6.456 6.2 12.887 9.326 19.318 1.652 3.398 3.298 6.798 4.946 10.197q6.26 12.91 12.531 25.813a52302 52302 0 0 1 21.508 44.328q4.08 8.415 8.165 16.83 2.54 5.23 5.069 10.466c2.832 5.864 5.67 11.722 8.588 17.543q1.33 2.66 2.65 5.327a589 589 0 0 0 3.244 6.445l1.409 2.862 1.246 2.474c.621 2.225.621 2.225.078 4.293-1.96 2.6-4.107 3.874-6.898 5.55l-3.42 2.067-3.701 2.19q-1.908 1.14-3.814 2.282c-17.805 10.624-35.933 20.617-54.362 30.116a469 469 0 0 0-9.492 5.016c-74.538 40.585-158.95 67.213-588.211 68.709-25.786-7.721-51.124-16.683-75.559-27.998l-3.261-1.507A896 896 0 0 1 9268 1940l-2.751-1.37c-19.55-9.805-38.28-21.165-56.249-33.63l-1.71-1.184c-25.669-17.87-50.557-37.71-72.493-60.054-1.722-1.688-3.5-3.228-5.36-4.762-3.19-2.672-5.808-5.64-8.496-8.809-2.17-2.45-4.472-4.718-6.816-7.004-4.336-4.283-8.192-8.798-11.992-13.558-1.892-2.332-3.85-4.546-5.883-6.754-6.21-6.914-11.683-14.443-17.25-21.875l-1.499-1.996c-53.73-71.738-85.78-156.648-105.251-292.004l-.18-2.022A717 717 0 0 1 8971 1471l-.147-2.14c-1.074-16.313-1.056-32.644-1.04-48.985v-2.15c.017-21.629.102-43.176 2.187-64.725l.236-2.463c6.483-67.112 20.126-133.718 47.764-195.537l1.487-3.344c18.832-42.092 42.675-82.83 73.013-117.758 2.338-2.71 4.58-5.475 6.813-8.273 9.598-11.73 20.371-22.403 31.062-33.125l1.563-1.571c5.84-5.863 11.75-11.57 18.062-16.929q1.625-1.424 3.246-2.852c8.283-7.223 16.867-13.966 25.654-20.563 1.988-1.5 3.96-3.02 5.928-4.546 78.902-60.828 178.5-94.772 605.172-61.039m-430 266-2.926 2.3c-15.323 12.462-30.318 26.998-41.876 43.05a250 250 0 0 1-3.905 5.2c-21.123 27.804-36.25 59.77-47.293 92.763l-.721 2.145a905 905 0 0 0-2.029 6.155l-1.172 3.587a110 110 0 0 0-2.145 9.037l-.533 2.71-.4 2.053a1325680 1325680 0 0 0 177.039.854l3.794.019q30 .144 60.002.29 31.023.153 62.046.299 17.323.082 34.648.168c65.49.326 130.98.428 196.471.37q.02-4.045.03-8.091l.012-2.291c.014-6.473-.438-12.817-1.23-19.243l-.405-3.341c-5.986-46.561-24.892-90.85-57.995-124.592a357 357 0 0 1-4.111-4.294c-6.9-7.151-14.365-13.212-22.301-19.148l-1.699-1.293c-9.561-7.258-19.669-13.158-30.301-18.707l-2.124-1.136C9641.4 1103.176 9605.209 1095.19 9570 1092l-2.359-.214c-4.878-.415-9.748-.658-14.641-.786l-2.518-.066c-68.135-1.487-134.927 17.152-188.482 60.066M6573 885l3.34 1.519c41.028 18.819 78.8 43.8 112.148 74.215a224 224 0 0 0 4.23 3.739c5.708 4.903 11.037 10.133 16.345 15.465l2.603 2.591c4.987 4.995 9.753 10.103 14.334 15.471q1.424 1.624 2.852 3.246c7.8 8.944 15.047 18.25 22.148 27.754l1.481 1.974c54.36 72.572 86.923 158.792 109.269 309.089l.18 2.142c.404 4.929.755 9.86 1.07 14.795l.147 2.257c1.065 17.046 1.053 34.108 1.04 51.18v2.24c-.005 23.492-.334 46.894-2.187 70.323l-.183 2.347c-.656 8.392-1.354 16.78-2.133 25.16l-.327 3.52C6859 1517 6859 1517 6858 1521h-818c13.919 48.716 31.01 93.51 63 133l1.244 1.556c6.761 8.405 14.219 16.113 21.819 23.756l2.756 2.785c6.086 6.058 12.434 11.595 19.181 16.903l2.059 1.633c47.69 37.417 105.207 58.556 164.753 67.617l2.99.458c20.762 2.965 41.437 3.665 62.386 3.604l3.989-.005c21.075-.04 41.904-.695 62.823-3.307l2.098-.257c64.34-7.932 127.243-26.146 185.902-53.743l2.898-1.358c25.388-11.93 50.405-24.66 74.063-39.787l2.252-1.438a301 301 0 0 0 4.056-2.662c1.53-.994 3.126-1.886 4.731-2.755 3 1 3 1 4.631 3.771a259 259 0 0 1 1.783 3.752l.99 2.06c1.083 2.26 2.152 4.526 3.221 6.792q1.14 2.385 2.281 4.767a4562 4562 0 0 1 4.739 9.926c3.25 6.817 6.557 13.605 9.864 20.394q2.655 5.455 5.303 10.913l1.056 2.173c5.722 11.784 11.435 23.572 17.148 35.36a147363 147363 0 0 0 23.16 47.756q2.539 5.227 5.066 10.46c2.832 5.863 5.67 11.722 8.588 17.543q1.33 2.66 2.65 5.327a589 589 0 0 0 3.244 6.445l1.409 2.862 1.246 2.474c.621 2.225.621 2.225.078 4.293-1.96 2.6-4.107 3.874-6.898 5.55l-3.42 2.067-3.702 2.19q-1.906 1.14-3.813 2.282c-17.768 10.602-35.856 20.584-54.249 30.058a464 464 0 0 0-9.875 5.226c-70.639 38.438-149.813 63.814-339.5 93.559l-2.369.125c-15.234.788-30.44 1.078-45.694 1.063l-3.409-.002c-80.397-.116-159.533-11.996-297.528-66.186l-2.751-1.37A434 434 0 0 1 5993 1907l-1.862-1.286c-26.684-18.454-52.578-38.765-75.341-61.952-1.722-1.688-3.5-3.228-5.36-4.762-3.19-2.672-5.808-5.64-8.496-8.809-2.17-2.45-4.472-4.718-6.816-7.004-4.336-4.283-8.192-8.798-11.992-13.558-1.892-2.332-3.85-4.546-5.883-6.754-6.21-6.914-11.683-14.443-17.25-21.875l-1.499-1.996c-53.73-71.738-85.78-156.648-105.251-292.004l-.18-2.022A717 717 0 0 1 5752 1471l-.147-2.14c-1.074-16.313-1.056-32.644-1.04-48.985v-2.15c.017-21.629.102-43.176 2.187-64.725l.236-2.463c6.483-67.112 20.126-133.718 47.764-195.537l1.487-3.344c18.832-42.092 42.675-82.83 73.013-117.758 2.338-2.71 4.58-5.475 6.813-8.273 9.598-11.73 20.371-22.403 31.062-33.125l1.563-1.571c5.84-5.863 11.75-11.57 18.062-16.929q1.624-1.424 3.246-2.852c8.283-7.223 16.867-13.966 25.654-20.563 1.988-1.5 3.96-3.02 5.928-4.546 78.902-60.828 178.5-94.772 605.172-61.039m-430 266-2.926 2.3c-15.323 12.462-30.318 26.998-41.876 43.05a250 250 0 0 1-3.905 5.2c-21.123 27.804-36.25 59.77-47.293 92.763l-.721 2.145a905 905 0 0 0-2.029 6.155l-1.172 3.587a110 110 0 0 0-2.145 9.037l-.533 2.71-.4 2.053a1325680 1325680 0 0 0 180.833.873q30 .144 60.002.29 31.023.153 62.046.299 17.323.082 34.648.168c65.49.326 130.98.428 196.471.37q.02-4.045.03-8.091l.012-2.291c.014-6.473-.438-12.817-1.23-19.243l-.405-3.341c-5.986-46.561-24.892-90.85-57.995-124.592a357 357 0 0 1-4.111-4.294c-6.9-7.151-14.365-13.212-22.301-19.148l-1.699-1.293c-9.561-7.258-19.669-13.158-30.301-18.707l-2.124-1.136C6422.4 1103.176 6386.209 1095.19 6351 1092l-2.359-.214c-4.878-.415-9.748-.658-14.641-.786l-2.518-.066c-68.135-1.487-134.927 17.152-188.482 60.066M3226 393h1186c-.616 9.852-1.284 19.56-2.404 29.344l-.421 3.764q-.572 5.092-1.15 10.182-.625 5.52-1.244 11.04-1.213 10.776-2.433 21.551a39251 39251 0 0 0-2.835 25.106 114545 114545 0 0 1-5.365 47.466 73391 73391 0 0 0-4.601 40.75 102735 102735 0 0 1-6.2 54.925q-.99 8.756-1.975 17.511-1.2 10.65-2.408 21.297-.617 5.434-1.227 10.87-.661 5.879-1.333 11.754l-.39 3.507-.363 3.154-.31 2.743C4377 710 4377 710 4376 711h-390v1259h-334V711h-426zM11064.249 941.553c2.412 1.993 4.867 3.933 7.313 5.884 5.88 4.808 11.367 10.018 16.883 15.231 2.775 2.617 5.61 5.146 8.492 7.644 68.368 61.19 105.421 152.56 116.313 241.938l.252 2.06c.55 4.56 1.085 9.117 1.498 13.69l.254 2.668c1.064 13.169.884 26.364.868 39.567-.003 3.734 0 7.469 0 11.204q.004 9.8-.003 19.601-.008 14.572-.005 29.146.001 24.52-.008 49.037-.01 24.27-.011 48.536v3.052l-.001 15.34q-.004 54.294-.019 108.589-.014 52.737-.02 105.476v3.286l-.013 99.203v3.09q-.006 46.874-.016 93.747v2.688L11216 1970h-274c-2.088-4.871-3.847-9.452-5.28-14.501l-.628-2.167q-1.016-3.52-2.022-7.043l-1.43-4.96q-1.882-6.523-3.753-13.05-1.883-6.555-3.774-13.111-2.139-7.416-4.27-14.834l-.657-2.29-1.278-4.452c-1.09-3.792-2.2-7.577-3.343-11.354l-.706-2.346a704 704 0 0 0-1.346-4.414c-1.009-3.355-1.513-5.934-1.513-9.478-4.526 2.388-7.634 5.476-11.125 9.125-4.772 4.879-9.669 9.346-15.027 13.586-2.609 2.097-5.123 4.264-7.634 6.474-73.873 64.759-171.9 98.73-326.714 111.002l-2.904-.002c-80.838-.17-165.081-19.865-230.596-69.185l-1.625-1.209A426 426 0 0 1 10305 1927l-3.117-2.488c-8.004-6.562-15.363-13.783-22.696-21.075l-1.478-1.462c-6.697-6.642-12.887-13.55-18.709-20.975l-1.647-2.09c-45.713-58.676-67.548-131.105-67.603-205.098l-.002-2.5c.09-69.545 23.935-136.322 71.025-187.863a265 265 0 0 0 4.266-4.804c10.245-11.76 21.901-21.975 34.31-31.379a247 247 0 0 0 4.643-3.676c74.272-59.32 176.34-81.96 321.582-86.706q5.676.005 11.35.002 9.776 0 19.553.008 14.133.011 28.268.012 22.945.004 45.889.019 22.256.014 44.513.02h2.783l13.824.005q57.123.016 114.246.05-.092-15.612-.236-31.222-.068-7.252-.11-14.506c-.177-37.442-.177-37.442-6.467-74.272l-.783-3.143c-2.198-8.557-4.88-16.758-8.404-24.857l-.898-2.09c-15.252-35.092-41.988-63.534-76.102-80.91l-2.161-1.124c-34.484-17.787-73.308-24.837-111.839-25.876l-2.041-.066c-80.486-2.351-159.723 22.655-231.959 56.066l-3.153 1.454c-13.367 6.189-26.356 12.921-39.221 20.09a740 740 0 0 1-7.571 4.132c-12.732 6.883-25.139 14.27-37.51 21.781L10375 1204l-2.703 1.7c-2.297 1.3-2.297 1.3-4.297 1.3a26927 26927 0 0 1-10.077-20.099l-3.412-6.804c-6.305-12.563-12.532-25.155-18.565-37.851-4.116-8.645-8.385-17.208-12.693-25.758-6.128-12.168-12.21-24.35-18.023-36.672-4.832-10.187-9.929-20.244-14.988-30.321-5.366-10.692-10.676-21.402-15.778-32.223-1.845-3.91-3.712-7.795-5.714-11.627l-1.034-1.99a551 551 0 0 0-2.67-5.01c-1.046-2.645-1.046-2.645-1.058-4.7 1.538-2.956 3.907-4.816 6.45-6.883l1.748-1.444c18.94-15.421 39.687-29.284 60.835-41.477 2.255-1.3 4.501-2.614 6.749-3.926 34.33-19.942 70.19-36.038 107.23-50.215l3.616-1.385c84.162-31.878 175.2-48.72 613.633 52.938m-456.062 588.197-3.127.782c-36.447 9.41-71.953 29.744-91.896 62.671-17.355 29.836-22.538 63.99-13.977 97.547 4.968 18.15 13.657 33.881 25.813 48.25l1.555 1.926c25.476 31.053 68.755 44.302 107.21 48.366 39.553 3.686 80.485-1.185 118.235-13.292l2.514-.803c31.064-10.164 60.387-26.886 83.908-49.67a433 433 0 0 1 3.355-3.21c14.216-13.48 25.327-28.449 35.223-45.317l1.061-1.79c12.23-20.869 19.767-44.648 24.189-68.335l.458-2.451c3.186-18.378 3.55-36.503 3.417-55.112q-.016-3.7-.027-7.4-.033-8.955-.098-17.912a86705 86705 0 0 0-112.54-.167q-18.73-.021-37.46-.064-19.262-.043-38.524-.051-11.858-.005-23.714-.042c-6.092-.018-12.184-.02-18.277-.015q-3.714-.001-7.43-.019c-20.17-.09-40.247 1.096-59.868 6.108M7881.176 2819.402q3.034 1.717 6.078 3.414a1514 1514 0 0 1 10.059 5.684l3.186 1.781 2.927 1.688 2.606 1.482c1.968 1.549 1.968 1.549 2.952 3.297.025 3.517-1.582 6.255-3.148 9.314l-1.04 2.106a747 747 0 0 1-2.241 4.488c-2.001 3.976-3.964 7.97-5.934 11.961l-1.205 2.434c-3.448 6.97-6.739 14.004-9.979 21.074-4.686 10.19-9.521 20.295-14.437 30.375-4.936 10.122-9.79 20.27-14.5 30.5s-9.564 20.378-14.5 30.5c-4.997 10.247-9.911 20.523-14.687 30.875-8.737 18.889-8.737 18.889-12.575 26.986a988 988 0 0 0-2.514 5.377l-1.544 3.242-1.352 2.872C7808 3051 7808 3051 7805 3052c-1.935-.89-1.935-.89-4.148-2.324l-2.514-1.6-2.713-1.764a2346 2346 0 0 0-5.75-3.632l-2.969-1.872c-15.158-9.428-30.983-17.76-46.906-25.808l-3.115-1.582c-55.581-28.046-115.229-44.696-176.885-52.418l-3.145-.407c-14.602-1.815-29.286-1.819-43.98-1.905l-2.93-.03c-36.187-.308-77.647 6.267-104.872 32.264A438 438 0 0 0 7401 2995l-2.238 2.172c-15.02 15.516-19.326 36.38-19.035 57.265.537 15.787 8 30.783 18.273 42.563l2.02 2.418c18.831 21.886 46.09 35.488 72.355 46.332l2.996 1.246c21.392 8.572 43.804 14.395 66 20.469 8 2.19 15.992 4.405 23.984 6.62l2.37.658c55.202 15.31 109.962 32.742 162.275 56.257l1.852.832c17.1 7.694 33.892 15.793 50.148 25.168l2.615 1.507c35.241 20.452 70.162 46.11 95.385 78.493l2.988 3.73c53.307 67.267 66.906 158.387 57.442 241.898-7.367 58.946-30.553 114.57-68.43 160.372-.468.57-.936 1.141-1.417 1.73-12.702 15.401-26.787 30.036-42.583 42.27a2117 2117 0 0 0-5.625 4.813c-22.974 19.13-49.47 34.322-76.375 47.187l-2.403 1.155c-61.75 29.48-130.55 43.72-198.597 47.845l-2.053.128c-14.42.883-28.815 1.074-43.26 1.06l-3.502-.002c-90.152-.127-180.182-13.933-414.185-97.186l-3.164-1.499c-21.55-10.218-42.855-20.77-63.711-32.347A171 171 0 0 0 7009 3755c.635-4.351 2.198-7.792 4.14-11.723l.964-1.965q1.029-2.096 2.064-4.187c1.851-3.742 3.683-7.494 5.516-11.246l1.124-2.299c3.264-6.692 6.4-13.437 9.505-20.205 5.624-12.234 11.512-24.33 17.434-36.422 5.58-11.4 11.034-22.843 16.331-34.379 4.5-9.76 9.2-19.42 13.922-29.074 5.848-11.956 11.58-23.95 17.14-36.044 6.73-14.592 13.808-29.017 20.86-43.456 7.26 2.217 14.032 5.171 20.92 8.35 3.442 1.585 6.894 3.149 10.346 4.713l2.183.989c80.366 36.321 164.308 67.922 334.985 98.151l2.903.017q3.024.015 6.048.02c3.014.01 6.028.04 9.043.073 16.414.09 32.541-1.273 48.322-6.063l2.624-.778c19.947-6.11 36.94-15.621 51.626-30.472l2.082-2.05c16.134-17.009 22.617-41.777 22.388-64.611-.57-18.158-7.535-33.758-19.47-47.339l-1.793-2.227c-39.995-48.266-116.966-63.789-174.269-80.082-67.142-19.1-133.364-39.33-195.938-70.691l-3.124-1.558c-26.359-13.214-51.023-28.81-73.876-47.442l-1.624-1.308c-8.182-6.621-15.724-13.839-23.189-21.255l-2.64-2.612c-47.268-47.498-71.448-115.794-71.75-182.169l-.021-3.15c-.018-3.335-.024-6.67-.026-10.006l-.002-3.458c.016-17.197.46-34.036 3.252-51.042l.52-3.251c5.012-30.448 14.066-59.962 27.48-87.749l1.217-2.534c9.54-19.607 21.511-38.155 35.485-54.908a427 427 0 0 0 3.9-4.773c6.24-7.599 13.033-14.624 19.96-21.597l2.613-2.641c5.967-5.939 12.244-11.305 18.825-16.547a1027 1027 0 0 0 3.723-3.082c66.786-54.898 154.935-80.572 700.453 8.484M6183 2737c8.437 22.098 16.698 44.26 24.933 66.435a40476 40476 0 0 0 11.855 31.874q8.46 22.731 16.93 45.458 8.631 23.167 17.251 46.338 8.26 22.2 16.531 44.395 9.24 24.801 18.47 49.605 8.259 22.2 16.53 44.395 8.85 23.748 17.688 47.5l.986 2.653 14.639 39.347a107919.886 107919.886 0 0 0 18.905 50.767q8.631 23.167 17.251 46.338 8.26 22.2 16.531 44.395a94093 94093 0 0 1 17.5 47q9.15 24.595 18.313 49.188l1.257 3.375 4.602 12.353A6749 6749 0 0 0 6439 3424c5.644-13.95 11.085-27.97 16.433-42.037a19399 19399 0 0 1 7.642-20.058c4.947-12.979 9.932-25.943 14.925-38.905a20819 20819 0 0 0 23.279-60.768l2.623-6.877 1.3-3.406a27632 27632 0 0 1 14.098-36.853q4.396-11.475 8.794-22.95l7.718-20.146 1.114-2.906q6.598-17.22 13.172-34.45l1.307-3.427 2.64-6.92q11.55-30.273 23.192-60.51a20061 20061 0 0 0 22.048-57.572l2.63-6.89 1.3-3.412a27119 27119 0 0 1 13.882-36.275 24557 24557 0 0 0 12.989-33.962l1.31-3.433 2.646-6.938q11.546-30.264 23.185-60.492a19006 19006 0 0 0 20.023-52.25l1.317-3.45c5.483-14.37 10.958-28.741 16.433-43.113h344c-.707 3.534-1.28 5.984-2.648 9.168l-1.03 2.416-1.127 2.604-1.183 2.767q-1.27 2.967-2.547 5.933c-1.825 4.24-3.64 8.484-5.456 12.729q-1.412 3.302-2.827 6.603a6177 6177 0 0 0-13.744 32.405l-2.355 5.58-5.896 13.98q-5.405 12.815-10.812 25.628l-1.198 2.837a15982 15982 0 0 1-17.722 41.805c-5.63 13.236-11.237 26.48-16.83 39.733l-1.196 2.834L6944 2983l-9.625 22.813-1.197 2.835a15985 15985 0 0 1-17.723 41.807c-5.63 13.236-11.237 26.48-16.83 39.733l-1.196 2.834L6889 3113l-9.625 22.813-1.197 2.835a15985 15985 0 0 1-17.723 41.807c-5.63 13.236-11.237 26.48-16.83 39.733l-1.196 2.834L6834 3243l-9.625 22.813-1.197 2.835a15985 15985 0 0 1-17.723 41.807c-5.63 13.236-11.237 26.48-16.83 39.733l-1.196 2.834L6779 3373l-9.625 22.813-1.197 2.835a15985 15985 0 0 1-17.723 41.807c-5.63 13.236-11.237 26.48-16.83 39.733l-1.196 2.834L6724 3503l-9.625 22.813-1.197 2.835a15985 15985 0 0 1-17.723 41.807c-5.63 13.236-11.237 26.48-16.83 39.733l-1.196 2.834L6669 3633l-9.625 22.813-1.197 2.835a15985 15985 0 0 1-17.723 41.807c-5.63 13.236-11.237 26.48-16.83 39.733l-1.196 2.834L6614 3763l-9.625 22.813-1.18 2.795c-6.62 15.685-13.27 31.357-19.942 47.02l-1.03 2.42-1.89 4.436A519 519 0 0 0 6576 3853h-266c-4.157-8.907-8.263-17.757-12.082-26.8l-1.368-3.22q-1.44-3.391-2.876-6.783-3.063-7.229-6.134-14.452l-3.116-7.336A8532 8532 0 0 0 6271 3763a16455 16455 0 0 1-20.125-47.125Q6238.979 3687.92 6227 3660a21348 21348 0 0 1-24.927-58.354c-7.33-17.227-14.692-34.44-22.073-51.646a21351 21351 0 0 1-24.927-58.354c-7.33-17.227-14.692-34.44-22.073-51.646a20164 20164 0 0 1-23.5-55 22197 22197 0 0 0-24-56.187l-1.548-3.612a96601 96601 0 0 0-17.515-40.826l-.86-2.008c-6.36-14.829-12.672-29.677-18.99-44.522A20238 20238 0 0 0 6024 3185a21347 21347 0 0 1-24.927-58.354c-7.33-17.227-14.692-34.44-22.073-51.646a20164 20164 0 0 1-23.5-55 22197 22197 0 0 0-24-56.187l-1.548-3.612a96601 96601 0 0 0-17.515-40.826l-.86-2.008c-6.356-14.822-12.666-29.662-18.981-44.501a19494 19494 0 0 0-21.616-50.58q-4.472-10.432-8.942-20.866-3.783-8.829-7.578-17.653-2.029-4.725-4.05-9.454-.898-2.097-1.802-4.193-1.2-2.786-2.39-5.577l-1.314-3.062C5842 2759 5842 2759 5842 2756c6.66-1.117 13.337-1.437 20.075-1.804l4.006-.225q5.488-.308 10.977-.609 5.925-.329 11.85-.66 11.604-.649 23.207-1.29 9.434-.52 18.867-1.046l2.713-.151 5.457-.304q25.586-1.423 51.17-2.838 21.94-1.215 43.88-2.438a184680 184680 0 0 1 56.415-3.135l2.703-.15q9.417-.522 18.833-1.047 11.484-.64 22.968-1.274 5.856-.322 11.712-.65 5.367-.3 10.735-.594 2.847-.156 5.694-.319c6.588-.357 13.14-.558 19.738-.466M11778 393v1577h-308l-.025-229.21v-8.685a5585191 5585191 0 0 1-.026-347.548l-.004-79.868q-.004-80.636-.014-161.271v-3.505l-.007-55.94q-.01-80.528-.015-161.057v-3.343l-.004-101.866v-3.23q-.002-51.593-.011-103.187a483894 483894 0 0 1-.007-121.05q0-22.308-.007-44.617-.006-21.897-.002-43.796.003-12.862-.004-25.726-.005-8.52 0-17.039.004-4.845-.001-9.689-.005-5.184.003-10.368l-.008-3.07.007-2.756v-2.391C11470 429 11470 429 11471 428a93 93 0 0 1 4.844-.67l3.197-.375 3.555-.404 3.744-.436q5.166-.6 10.334-1.19 5.564-.64 11.127-1.286 10.91-1.263 21.82-2.517 12.695-1.46 25.39-2.928 22.65-2.617 45.3-5.223a99400 99400 0 0 0 46.722-5.388l2.73-.316q25.01-2.889 50.02-5.772 8.856-1.02 17.71-2.044 10.791-1.246 21.582-2.486 5.509-.633 11.017-1.27 5.966-.69 11.93-1.373l3.536-.41 3.22-.368 2.784-.32C11774 393 11774 393 11778 393" />
  <path fill="#18a0ba"
    d="m10134 2720 .388 2.672q4.666 32.174 9.339 64.347 2.26 15.559 4.516 31.117l3.937 27.12q1.043 7.18 2.084 14.362.98 6.758 1.963 13.515l.72 4.962q.49 3.387.984 6.774l.556 3.83c.433 2.788.931 5.54 1.513 8.301l1.095-1.674c10.549-16.086 21.53-31.586 33.905-46.326l2.414-2.977c6.607-8.04 13.814-15.465 21.148-22.836.725-.731.725-.731 1.463-1.478 6.645-6.701 13.598-12.823 20.975-18.709q2.723-2.339 5.438-4.687c81.079-67.34 192.428-84.537 303.002-75.876 20.016 1.89 40.024 4.788 59.56 9.563.145 7.938-.286 15.718-1.018 23.62l-.332 3.711q-.455 5.054-.918 10.107-.498 5.467-.988 10.934-.964 10.692-1.938 21.382-1.133 12.459-2.257 24.919-2.01 22.232-4.03 44.464a100324 100324 0 0 0-3.908 43.117l-.243 2.684-.965 10.681a220277 220277 0 0 1-4.85 53.555q-1.18 13.05-2.366 26.097l-.979 10.788q-.53 5.85-1.063 11.702l-.31 3.432c-.513 5.619-1.094 11.214-1.835 16.807-6.38-.667-12.7-1.527-19.035-2.523-94.34-14.605-195.62-12.448-281.086 47.64A247 247 0 0 0 10266 3107l-2.363 2.027c-12.454 10.946-23.813 22.615-33.637 35.973l-1.292 1.73A253 253 0 0 0 10211 3174c-.43.761-.859 1.523-1.3 2.307-30.428 54.574-39.83 116.877-39.858 178.599l-.015 6.481q-.02 8.832-.028 17.665-.013 9.55-.034 19.103-.033 16.525-.056 33.05-.024 17.32-.056 34.637l-.004 2.181-.02 10.966q-.071 38.769-.132 77.537a396069 396069 0 0 1-.201 118.556c-.105 59.306-.2 118.612-.296 177.918h-308V2756c21.825-3.446 21.825-3.446 30.838-4.614l3.164-.416q5.127-.672 10.256-1.34 3.724-.487 7.447-.977 8.985-1.177 17.972-2.35 10.476-1.369 20.952-2.742 18.68-2.446 37.36-4.886 18.12-2.369 36.238-4.74l2.262-.297 2.259-.296a232446 232446 0 0 1 55.952-7.322q9.804-1.284 19.608-2.564l7.21-.943q4.902-.641 9.802-1.28l2.915-.383 2.636-.343 2.287-.299c1.842-.208 1.842-.208 3.842-.208" />
  <path fill="#1da2bb"
    d="M1235 2760c1 2 1 2 .598 3.81a590 590 0 0 1-2.535 7.315l-.963 2.72c-3.058 8.412-6.804 16.314-11.1 24.155l-1.781 3.27c-5.43 9.611-11.899 18.279-18.969 26.73l-1.394 1.674c-2.406 2.829-4.77 5.249-7.856 7.326 1.26-3.303 2.67-6.352 4.434-9.414l1.45-2.526 1.553-2.685 1.617-2.81q2.47-4.285 4.946-8.565l2.887-5.008A2807 2807 0 0 1 1235 2760" />
</svg>