<svg xmlns="http://www.w3.org/2000/svg" style="display: none;">
  <!-- Logomark: The Real Devs Pro -->
  <symbol id="logomark" viewBox="0 0 2857.41 1174.24">
    <defs>
      <style>.cls-10{stroke:#18a0ba;fill:none;stroke-linecap:round;stroke-linejoin:round;stroke-width:85.04px}</style>
    </defs>
    <g>
      <text style="font-family:Hartwell-Bold,Hartwell;font-size:567.21px;font-weight:700" transform="translate(744.17 924.66)">
        <tspan x="0" y="0" style="fill:#fff;letter-spacing:-.02em">D</tspan>
        <tspan x="373.79" y="0" style="letter-spacing:-.04em;fill:#fff">e</tspan>
        <tspan x="648.88" y="0" style="fill:#fff;letter-spacing:-.04em">v</tspan>
        <tspan x="922.28" y="0" style="fill:#fff;letter-spacing:-.02em">s </tspan>
        <tspan x="1273.94" y="0" style="fill:#18a0ba;letter-spacing:-.04em">P</tspan>
        <tspan x="1580.8" y="0" style="letter-spacing:-.02em;fill:#18a0ba">ro</tspan>
      </text>
      <text style="fill:#fff;font-family:Hartwell-Bold,Hartwell;font-size:567.21px;font-weight:700" transform="translate(771.65 472.77)">
        <tspan x="0" y="0" style="letter-spacing:-.02em">T</tspan>
        <tspan x="278.5" y="0" style="letter-spacing:0">h</tspan>
        <tspan x="587.63" y="0">e </tspan>
        <tspan x="1020.4" y="0" style="letter-spacing:0">R</tspan>
        <tspan x="1355.05" y="0" style="letter-spacing:0">e</tspan>
        <tspan x="1648.87" y="0">al</tspan>
      </text>
      <path d="m447.81 371.61 212.97 250.93-212.97 263.58M255.49 136.29 42.52 387.22 255.49 650.8" class="cls-10"/>
      <path d="M554.67 134.77 116.63 886.12" style="fill:none;stroke-linecap:round;stroke-linejoin:round;stroke-width:85.04px;stroke:#fff"/>
    </g>
  </symbol>

  <!-- Wordmark: astro -->
  <symbol id="wordmark" viewBox="0 0 1847 457" fill="none">
    <path d="M134.148 456.833C202.08 456.833 253.03 432.665 273.93 391.516C273.93 411.111 275.23 431.36 278.5 447.036H390.19C384.97 424.173 382.36 392.82 382.36 351.671V251.081C382.36 155.717 326.18 110.648 201.43 110.648C92.3441 110.648 19.188 155.717 10.697 229.527H126.963C130.882 197.521 157.66 179.885 201.43 179.885C244.53 179.885 268.7 197.521 268.7 234.1V243.896L150.48 254.347C92.997 260.227 60.338 270.023 37.477 285.7C13.31 302.028 0.898987 326.851 0.898987 357.549C0.898987 418.948 51.847 456.833 134.148 456.833ZM177.26 388.902C139.37 388.902 116.512 373.88 116.512 349.712C116.512 324.892 135.45 311.827 183.14 305.949L270.66 296.805V316.4C270.66 360.163 232.78 388.902 177.26 388.902Z" fill="currentColor"/>
    <path d="M625.77 456.833C739.43 456.833 797.56 414.377 797.56 345.793C797.56 288.966 764.9 257.613 685.87 247.162L587.23 236.059C559.15 232.138 547.39 224.953 547.39 209.277C547.39 190.336 566.33 181.844 609.44 181.844C668.88 181.844 710.03 195.561 743.35 222.342L796.25 169.434C759.67 131.55 696.32 110.648 617.94 110.648C507.55 110.648 446.15 149.838 446.15 215.809C446.15 273.289 484.03 305.295 562.41 315.745L651.25 326.196C686.52 330.769 696.97 337.302 696.97 354.283C696.97 373.88 677.37 384.331 631.65 384.331C563.72 384.331 518 366.041 487.3 332.076L427.21 381.717C467.05 431.36 534.98 456.833 625.77 456.833Z" fill="currentColor"/>
    <path d="M889.78 194.255V332.076C889.78 413.07 935.5 454.221 1033.48 454.221C1063.53 454.221 1087.04 450.955 1109.25 444.423V359.508C1097.49 362.122 1083.12 364.734 1064.18 364.734C1023.03 364.734 1002.78 346.446 1002.78 307.908V194.255H1109.9V120.445H1002.78V0.914001L889.78 42.717V120.445H816.62V194.255H889.78Z" fill="currentColor"/>
    <path d="M1272.13 120.445H1168.93V447.036H1281.93V324.892C1281.93 289.618 1289.77 257.613 1311.33 237.364C1328.31 221.687 1352.48 213.198 1386.44 213.198C1398.85 213.198 1408.65 214.502 1419.75 215.809V113.26C1412.57 111.954 1407.34 111.954 1398.2 111.954C1333.53 111.954 1289.77 149.185 1272.13 209.932V120.445Z" fill="currentColor"/>
    <path d="M1643.05 456.833C1762.59 456.833 1846.85 393.475 1846.85 283.088C1846.85 173.353 1762.59 110.648 1643.05 110.648C1522.87 110.648 1438.61 173.353 1438.61 283.088C1438.61 393.475 1522.87 456.833 1643.05 456.833ZM1643.05 381.717C1588.19 381.717 1553.57 346.446 1553.57 283.088C1553.57 219.728 1588.19 185.763 1643.05 185.763C1697.27 185.763 1731.89 219.728 1731.89 283.088C1731.89 346.446 1697.27 381.717 1643.05 381.717Z" fill="currentColor"/>
  </symbol>

  <!-- React -->
  <symbol id="react" viewBox="0 0 190 190" fill="none">
    <path fill="currentColor" d="M190 95c0-13-16-25-40-32 6-25 3-45-8-51l-8-2v9l4 1c5 3 8 14 6 29l-2 11-25-4c-5-7-10-14-16-19 13-12 25-18 33-18v-9c-11 0-25 8-39 21-14-13-28-21-39-21v9c8 0 20 6 33 18L73 56l-25 4-2-11c-2-15 1-26 6-29l4-1v-9l-9 2c-10 7-13 26-7 51C16 70 0 82 0 95c0 12 16 24 40 32-6 24-3 44 8 50 2 2 5 2 8 2 11 0 25-7 39-21 14 14 28 21 39 21l9-2c10-6 13-26 7-51 24-7 40-19 40-31Zm-50-26-6 15a184 184 0 0 0-10-18l16 3Zm-18 41-9 15a202 202 0 0 1-35 0 213 213 0 0 1-18-30 202 202 0 0 1 17-31 202 202 0 0 1 35 0 213 213 0 0 1 18 31l-8 15Zm12-5 6 15-16 4a212 212 0 0 0 10-19Zm-39 41-11-12a240 240 0 0 0 22 0l-11 12Zm-29-22-16-4 6-15a183 183 0 0 0 10 19Zm29-81 11 12a240 240 0 0 0-22 0l11-12ZM66 66a214 214 0 0 0-10 18l-6-15 16-3Zm-35 48c-14-6-22-13-22-19s8-14 22-20l11-4 9 24-9 23-11-4Zm21 56c-5-3-8-15-6-30l2-11 25 4c5 7 10 14 16 19-13 12-25 19-33 19l-4-1Zm92-30c2 15-1 26-6 29l-4 1c-8 0-20-6-33-18 6-5 11-12 16-19l25-4 2 11Zm15-26-11 4-9-23 9-24 11 4c14 6 22 14 22 20s-9 13-22 19Z"/>
    <path fill="currentColor" d="M95 112a18 18 0 1 0 0-35 18 18 0 0 0 0 35Z"/>
  </symbol>

  <!-- Vue -->
  <symbol id="vue" viewBox="0 0 190 190" fill="none">
    <path d="M149.4 17.0008H185.426L95.3608 172.999L5.2959 17.0008H41.3223L95.3611 110.598L149.4 17.0008Z" fill="currentColor"/>
    <path d="M116.16 17.0007L95.3604 53.0268L74.5613 17.0007H41.3223L95.3611 110.598L149.4 17.0007H116.16Z" fill="currentColor" fill-opacity="0.45"/>
  </symbol>

  <!-- Svelte -->
  <symbol id="svelte" viewBox="0 0 190 190" fill="none">
    <path fill="currentColor" fill-rule="evenodd" d="M87 14c23-15 56-8 72 15v1a50 50 0 0 1 9 38c-1 6-4 12-7 17a50 50 0 0 1-3 51c-4 5-8 10-14 13l-41 26a54 54 0 0 1-81-33v-20c1-7 3-13 7-18a50 50 0 0 1 2-50c4-6 9-10 14-14l42-26ZM63 161c6 2 13 3 20 1l8-4 41-26a28 28 0 0 0 13-31l-5-11a33 33 0 0 0-35-13l-9 4-15 10a9 9 0 0 1-9 0 10 10 0 0 1-6-6v-4a9 9 0 0 1 4-6l41-26 3-1a10 10 0 0 1 10 4l2 6v1l1 1c6 2 12 4 16 8l3 1v-2l1-4a30 30 0 0 0-5-23 33 33 0 0 0-35-13l-8 4-42 26a28 28 0 0 0-13 19 30 30 0 0 0 6 23 33 33 0 0 0 35 13c3 0 5-2 8-3l16-10 2-2a10 10 0 0 1 12 8l1 3a9 9 0 0 1-4 6l-42 26-2 1a10 10 0 0 1-12-10v-1l-2-1c-6-1-11-4-16-8l-2-1-1 2-1 4a30 30 0 0 0 5 23c4 5 10 10 16 12Z" clip-rule="evenodd"/>
  </symbol>

  <!-- Solid -->
  <symbol id="solid" viewBox="0 0 190 190" fill="none">
    <path d="M127.61 135.052C121.624 127.573 113.542 122.052 104.399 119.195C95.2561 116.338 85.4683 116.275 76.2893 119.014L10 140.398C10 140.398 66.6667 183.165 110.503 172.473L113.711 171.404C131.887 166.058 138.302 148.951 127.61 135.052Z" fill="currentColor" fill-opacity="0.85"/>
    <path d="M125.783 81.7735C134.926 84.6307 143.008 90.152 148.994 97.6304C154.34 106.184 155.409 114.737 151.132 122.222L129.748 160.712L129.314 160.639C134.288 153.175 134.123 143.518 127.61 135.052C121.624 127.573 113.542 122.052 104.399 119.195C95.2561 116.338 85.4683 116.275 76.2893 119.014L10 140.398L31.3836 102.976L97.673 81.5926C106.852 78.8533 116.64 78.9163 125.783 81.7735Z" fill="currentColor" fill-opacity="0.65"/>
    <path d="M57.0441 50.5863L61.3208 49.5171C104.088 39.8945 160.755 81.5926 160.755 81.5926L139.663 88.7366C135.466 85.6958 130.783 83.3362 125.783 81.7735C116.64 78.9163 106.852 78.8533 97.673 81.5926L51.96 96.3387C48.5484 93.9348 45.5491 91.1335 43.1447 88.0077C33.5221 73.0392 38.868 55.9322 57.0441 50.5863Z" fill="currentColor" fill-opacity="0.45"/>
    <path d="M79.4969 17.4417C123.333 7.81904 180 49.5172 180 49.5172L160.755 81.5926C160.755 81.5926 104.088 39.8945 61.3208 49.5172L57.0441 50.5863C51.0678 52.344 46.4787 55.3732 43.3525 59.1798C43.2832 59.1664 43.2139 59.1531 43.1447 59.1398L59.1824 31.3411L61.3208 28.1335C64.5283 23.8568 69.8742 20.6492 76.2893 18.5109L79.4969 17.4417Z" fill="currentColor" fill-opacity="0.3"/>
  </symbol>

  <!-- Preact -->
  <symbol id="preact" viewBox="0 0 190 190" fill="none">
    <path fill="currentColor" d="m101 61 24-10c6-2 12-3 17-2 4 0 7 1 9 4 1 2 2 5 1 9l-6 16-10 13a181 181 0 0 0-35-30ZM54 91l-9-13c-4-6-6-11-7-16 0-4 0-7 2-9 2-3 4-4 9-4 4-1 10 0 17 2l24 10a190 190 0 0 0-36 30Z"/>
    <path fill="currentColor" fill-rule="evenodd" d="M58 95a174 174 0 0 1 37-30 182 182 0 0 1 37 30 174 174 0 0 1-37 30 182 182 0 0 1-37-30Zm37 13a13 13 0 1 0 0-26 13 13 0 0 0 0 26Z" clip-rule="evenodd"/>
    <path fill="currentColor" d="m54 99-9 13c-4 6-6 11-7 16 0 4 0 7 2 9 2 3 4 4 9 4 4 1 10 0 17-2l24-10a191 191 0 0 1-36-30Zm47 30 24 10c6 2 12 3 17 2 4 0 7-1 9-4 1-2 2-5 1-9l-6-16-10-13a181 181 0 0 1-35 30Z"/>
    <path fill="currentColor" fill-rule="evenodd" d="M178 48 95 0 13 48v95l82 47 83-47V48ZM95 58c10-6 20-10 28-13 7-2 14-3 19-2 6 0 10 2 13 6s4 9 3 14c-1 6-4 12-7 18l-11 14 11 14c3 6 6 12 7 18 1 5 0 10-3 14s-7 6-13 6c-5 1-12 0-19-2-8-3-18-7-28-13-10 6-19 10-28 13-7 2-13 3-19 2-5 0-10-2-13-6s-3-9-2-14c1-6 3-12 7-18l10-14-10-14c-4-6-6-12-7-18-1-5-1-10 2-14s8-6 13-6c6-1 12 0 19 2 9 3 18 7 28 13Z" clip-rule="evenodd"/>
  </symbol>

  <!-- Lit -->
  <symbol id="lit" viewBox="0 0 190 190" fill="none">
    <path fill="currentColor" d="M95 143V79l33-33v65l-33 32Zm-65 0 32 33v-65H46"/>
    <path fill="currentColor" d="M62 111V46l33-32v65l-33 32Zm66 65v-65l32-32v64l-32 33Zm-98-33V79l32 32"/>
  </symbol>

  <!-- Netlify -->
  <symbol id="netlify" viewBox="0 0 190 190" fill="none">
    <path d="M137.548 65.935L137.479 65.9052C137.439 65.8904 137.399 65.8755 137.365 65.8408C137.308 65.7797 137.266 65.7064 137.242 65.6265C137.218 65.5466 137.212 65.4623 137.226 65.38L141.056 41.9614L159.019 59.9292L140.338 67.8774C140.286 67.8984 140.23 67.9085 140.174 67.9071H140.1C140.075 67.8923 140.05 67.8725 140.001 67.8229C139.306 67.0488 138.474 66.4089 137.548 65.935V65.935ZM163.603 64.5078L182.809 83.7144C186.798 87.7083 188.795 89.7004 189.524 92.0095C189.633 92.3514 189.722 92.6933 189.791 93.0452L143.891 73.6057C143.866 73.5955 143.841 73.5856 143.816 73.576C143.633 73.5016 143.42 73.4174 143.42 73.2291C143.42 73.0408 143.638 72.9516 143.821 72.8773L143.881 72.8525L163.603 64.5078ZM189.008 99.2095C188.017 101.073 186.085 103.005 182.814 106.281L161.16 127.93L133.153 122.098L133.004 122.068C132.756 122.028 132.494 121.984 132.494 121.761C132.387 120.606 132.044 119.484 131.486 118.467C130.927 117.45 130.166 116.559 129.248 115.849C129.134 115.735 129.164 115.557 129.198 115.393C129.198 115.369 129.198 115.344 129.208 115.324L134.476 82.986L134.496 82.877C134.525 82.6292 134.57 82.3418 134.793 82.3418C135.922 82.2014 137.011 81.8377 137.998 81.272C138.985 80.7062 139.849 79.9497 140.541 79.0466C140.586 78.997 140.615 78.9425 140.675 78.9128C140.833 78.8384 141.022 78.9128 141.185 78.9821L189.003 99.2095H189.008ZM156.18 132.91L120.571 168.519L126.666 131.057L126.676 131.007C126.681 130.958 126.691 130.908 126.706 130.864C126.755 130.745 126.884 130.695 127.008 130.646L127.068 130.621C128.402 130.051 129.582 129.173 130.512 128.059C130.63 127.92 130.774 127.786 130.957 127.762C131.005 127.754 131.054 127.754 131.101 127.762L156.175 132.915L156.18 132.91ZM113.034 176.056L109.021 180.069L64.6463 115.938C64.6302 115.915 64.6137 115.892 64.5967 115.869C64.5273 115.775 64.453 115.681 64.4679 115.572C64.4679 115.492 64.5224 115.423 64.5769 115.364L64.6264 115.299C64.7602 115.101 64.8742 114.903 64.9981 114.69L65.0972 114.516L65.112 114.501C65.1814 114.382 65.2458 114.269 65.3648 114.204C65.4688 114.155 65.6125 114.174 65.7265 114.199L114.888 124.338C115.025 124.359 115.155 124.415 115.264 124.501C115.329 124.566 115.343 124.635 115.358 124.714C115.701 126.012 116.339 127.212 117.223 128.222C118.107 129.232 119.212 130.024 120.452 130.537C120.591 130.606 120.532 130.76 120.467 130.923C120.435 130.995 120.41 131.069 120.393 131.146C119.773 134.912 114.461 167.31 113.034 176.056ZM104.65 184.435C101.692 187.363 99.9475 188.914 97.9753 189.539C96.0307 190.154 93.9438 190.154 91.9993 189.539C89.6901 188.805 87.6931 186.813 83.7042 182.82L39.1416 138.257L50.7815 120.205C50.836 120.116 50.8905 120.036 50.9797 119.972C51.1035 119.883 51.2819 119.922 51.4306 119.972C54.1023 120.778 56.9708 120.633 59.5473 119.561C59.6811 119.511 59.8149 119.476 59.9189 119.571C59.971 119.618 60.0175 119.671 60.0577 119.729L104.65 184.44V184.435ZM34.8454 133.961L24.6227 123.738L44.8104 115.126C44.862 115.103 44.9176 115.091 44.9739 115.091C45.1424 115.091 45.2415 115.26 45.3307 115.413C45.5335 115.725 45.7484 116.029 45.9749 116.325L46.0393 116.404C46.0987 116.488 46.0591 116.573 45.9996 116.652L34.8503 133.961H34.8454ZM20.0985 119.214L7.1653 106.281C4.96517 104.081 3.36957 102.485 2.2596 101.112L41.5845 109.269C41.6339 109.278 41.6835 109.286 41.7332 109.293C41.976 109.333 42.2435 109.378 42.2435 109.606C42.2435 109.853 41.9512 109.967 41.7034 110.062L41.5895 110.111L20.0985 119.214ZM0 94.4624C0.0448161 93.6292 0.194659 92.8051 0.445973 92.0095C1.17935 89.7004 3.17136 87.7083 7.1653 83.7144L23.7159 67.1639C31.3362 78.2234 38.9772 89.2687 46.6389 100.3C46.7727 100.478 46.9213 100.676 46.7677 100.825C46.0442 101.623 45.3208 102.495 44.8104 103.441C44.755 103.563 44.6698 103.669 44.5626 103.749C44.4982 103.788 44.4288 103.773 44.3545 103.758H44.3446L0 94.4574V94.4624ZM28.1459 62.7339L50.39 40.4798C52.4861 41.3965 60.1023 44.6125 66.9059 47.4865C72.0593 49.6669 76.7569 51.649 78.2336 52.2931C78.3822 52.3526 78.516 52.4121 78.5804 52.5607C78.6201 52.6499 78.6002 52.7639 78.5804 52.858C78.2282 54.4644 78.2806 56.1331 78.7329 57.7142C79.1853 59.2953 80.0234 60.7393 81.172 61.9162C81.3207 62.0649 81.172 62.278 81.0432 62.4613L80.9738 62.5654L58.3779 97.5644C58.3184 97.6635 58.2639 97.7477 58.1648 97.8121C58.0459 97.8864 57.8774 97.8518 57.7386 97.8171C56.8598 97.5868 55.9563 97.4637 55.0479 97.4504C54.2353 97.4504 53.3532 97.599 52.4613 97.7626H52.4563C52.3572 97.7774 52.268 97.7972 52.1887 97.7378C52.1012 97.6662 52.0259 97.5809 51.9658 97.4851L28.1409 62.7339H28.1459ZM54.8943 35.9854L83.7042 7.17554C87.6931 3.18656 89.6901 1.1896 91.9993 0.461174C93.9438 -0.153725 96.0307 -0.153725 97.9753 0.461174C100.284 1.1896 102.281 3.18656 106.27 7.17554L112.514 13.4192L92.024 45.1526C91.9734 45.245 91.9042 45.326 91.8209 45.3905C91.697 45.4747 91.5236 45.44 91.3749 45.3905C89.7594 44.9002 88.0488 44.811 86.3911 45.1304C84.7334 45.4499 83.1784 46.1684 81.8608 47.2239C81.727 47.3627 81.5288 47.2834 81.3603 47.209C78.6845 46.0446 57.8724 37.249 54.8943 35.9854V35.9854ZM116.865 17.7699L135.784 36.689L131.225 64.9241V64.9984C131.221 65.0628 131.208 65.1262 131.185 65.1867C131.136 65.2858 131.037 65.3056 130.938 65.3354C129.963 65.6306 129.045 66.0879 128.222 66.6882C128.187 66.7134 128.154 66.7415 128.123 66.7724C128.069 66.8319 128.014 66.8864 127.925 66.8963C127.852 66.8985 127.78 66.8867 127.712 66.8616L98.8821 54.6122L98.8276 54.5874C98.6443 54.5131 98.4262 54.4239 98.4262 54.2356C98.2568 52.629 97.7321 51.0803 96.8901 49.7015C96.7514 49.4736 96.5977 49.2357 96.7167 49.0029L116.865 17.7699ZM97.3807 60.4148L124.407 71.8614C124.555 71.9308 124.719 71.9952 124.783 72.1488C124.809 72.2412 124.809 72.3389 124.783 72.4313C124.704 72.8277 124.635 73.2786 124.635 73.7345V74.4927C124.635 74.681 124.441 74.7603 124.263 74.8346L124.208 74.8544C119.927 76.6829 64.1012 100.488 64.0169 100.488C63.9327 100.488 63.8435 100.488 63.7593 100.404C63.6106 100.255 63.7593 100.047 63.8931 99.8586C63.9167 99.826 63.9398 99.7929 63.9624 99.7595L86.1719 65.3701L86.2115 65.3106C86.3404 65.1025 86.489 64.8696 86.7269 64.8696L86.9499 64.9043C87.4553 64.9736 87.9013 65.0381 88.3522 65.0381C91.7218 65.0381 94.8436 63.3979 96.7266 60.5932C96.7714 60.5183 96.8284 60.4513 96.8951 60.395C97.0289 60.2959 97.2271 60.3454 97.3807 60.4148V60.4148ZM66.4301 105.929L127.281 79.9782C127.281 79.9782 127.37 79.9782 127.454 80.0624C127.786 80.3944 128.069 80.6174 128.341 80.8255L128.475 80.9097C128.599 80.9791 128.723 81.0584 128.733 81.1872C128.733 81.2368 128.733 81.2665 128.723 81.3111L123.51 113.332L123.49 113.461C123.455 113.709 123.421 113.991 123.188 113.991C121.798 114.085 120.452 114.516 119.266 115.247C118.081 115.979 117.091 116.988 116.384 118.188L116.359 118.228C116.29 118.342 116.226 118.451 116.112 118.51C116.007 118.56 115.874 118.54 115.765 118.515L67.2379 108.506C67.1883 108.496 66.4847 105.934 66.4301 105.929V105.929Z" fill="currentColor"/>
  </symbol>

  <!-- Vercel -->
  <symbol id="vercel" viewBox="0 0 190 190" fill="none">
    <path d="M94.9998 13L190 177.546H0L94.9998 13Z" fill="currentColor"/>
  </symbol>

  <!-- Render -->
  <symbol id="render" viewBox="0 0 190 190" fill="none">
    <path d="M113.3 0H111.3V2V20.5996V22.5996H113.3H131.9H133.9V20.5996V2V0H131.9H113.3Z" fill="currentColor"/>
    <path d="M53.5 0C46.3 0 39.3002 1.4002 32.7002 4.2002C26.3002 6.9002 20.6002 10.8002 15.7002 15.7002C10.8002 20.6002 6.9002 26.3002 4.2002 32.7002C1.4002 39.3002 0 46.3 0 53.5V131.9V133.9H2H20.5996H22.5996V131.9V53.2002C22.9996 45.1002 26.3996 37.5004 32.0996 31.9004C37.8996 26.2004 45.4996 22.8996 53.5996 22.5996H94.7998H96.7998V20.5996V2V0H94.7998H53.5Z" fill="currentColor"/>
    <path d="M150.4 74.2002H148.4V76.2002V94.7998V96.7998H150.4H169H171V94.7998V76.2002V74.2002H169H150.4Z" fill="currentColor"/>
    <path d="M150.4 37.0996H148.4V39.0996V57.7002V59.7002H150.4H169H171V57.7002V39.0996V37.0996H169H150.4Z" fill="currentColor"/>
    <path d="M169 0H150.4H148.4V2V20.5996V22.5996H150.4H169H171V20.5996V2V0H169Z" fill="currentColor"/>
    <path d="M150.4 111.3H148.4V113.3V131.9V133.9H150.4H169H171V131.9V113.3V111.3H169H150.4Z" fill="currentColor"/>
    <path d="M150.4 148.4H148.4V150.4V169V171H150.4H169H171V169V150.4V148.4H169H150.4Z" fill="currentColor"/>
    <path d="M113.3 148.4H111.3V150.4V169V171H113.3H131.9H133.9V169V150.4V148.4H131.9H113.3Z" fill="currentColor"/>
    <path d="M76.2002 148.4H74.2002V150.4V169V171H76.2002H94.7998H96.7998V169V150.4V148.4H94.7998H76.2002Z" fill="currentColor"/>
    <path d="M39.0996 148.4H37.0996V150.4V169V171H39.0996H57.7002H59.7002V169V150.4V148.4H57.7002H39.0996Z" fill="currentColor"/>
    <path d="M2 148.4H0V150.4V169V171H2H20.5996H22.5996V169V150.4V148.4H20.5996H2Z" fill="currentColor"/>
  </symbol>
  <!-- mdi:menu -->
  <symbol id="mdi:menu" viewBox="0 0 24 24"><path fill="currentColor" d="M3 6h18v2H3zm0 5h18v2H3zm0 5h18v2H3z"/></symbol>

  <!-- mdi:close -->
  <symbol id="mdi:close" viewBox="0 0 24 24"><path fill="currentColor" d="M19 6.41L17.59 5L12 10.59L6.41 5L5 6.41L10.59 12L5 17.59L6.41 19L12 13.41L17.59 19L19 17.59L13.41 12z"/></symbol>

  <!-- mdi:rocket -->
  <symbol id="mdi:rocket" viewBox="0 0 24 24"><path fill="currentColor" d="m20 22l-3.86-1.55c.7-1.53 1.2-3.11 1.51-4.72zM7.86 20.45L4 22l2.35-6.27c.31 1.61.81 3.19 1.51 4.72M12 2s5 2 5 10c0 3.1-.75 5.75-1.67 7.83A2 2 0 0 1 13.5 21h-3a2 2 0 0 1-1.83-1.17C7.76 17.75 7 15.1 7 12c0-8 5-10 5-10m0 10c1.1 0 2-.9 2-2s-.9-2-2-2s-2 .9-2 2s.9 2 2 2"/></symbol>

  <!-- mdi:telescope -->
  <symbol id="mdi:telescope" viewBox="0 0 24 24"><path fill="currentColor" d="m21.9 8.9l-1.7 1l-4-6.9l1.7-1zm-12.1-1l3 5.2l6.1-3.5l-3-5.2zm1.6 4.8l-2-3.5l-4.3 2.5l2 3.5zm-9.3 1.9l1 1.7l2.6-1.5l-1-1.7zm10-.6l-.3-.4l-4.3 2.5l.3.4c.2.3.5.6.8.8L7 22h2l1.4-4.3h.1L12 22h2l-1.9-5.6c.5-.7.5-1.6 0-2.4"/></symbol>
</svg>
